<?xml version="1.0" standalone="no"?>
<!DOCTYPE svg PUBLIC "-//W3C//DTD SVG 20010904//EN"
 "http://www.w3.org/TR/2001/REC-SVG-20010904/DTD/svg10.dtd">
<svg version="1.0" xmlns="http://www.w3.org/2000/svg"
 width="300.000000pt" height="263.000000pt" viewBox="0 0 300.000000 263.000000"
 preserveAspectRatio="xMidYMid meet">
<metadata>
Created by potrace 1.10, written by Peter Selinger 2001-2011
</metadata>
<g transform="translate(0.000000,263.000000) scale(0.100000,-0.100000)"
fill="#000000" stroke="none">
<path d="M0 2608 c0 -19 13 -36 47 -61 17 -12 80 -68 139 -123 60 -55 161
-147 224 -204 204 -184 190 -168 190 -215 0 -56 25 -148 59 -220 24 -49 30
-77 33 -155 6 -116 17 -140 99 -212 l62 -55 -17 -45 c-30 -76 -29 -77 344
-409 90 -80 167 -150 242 -221 10 -10 18 -22 18 -27 0 -21 -90 -201 -100 -201
-6 0 -32 20 -58 44 -26 24 -66 61 -90 83 -47 43 -62 82 -62 161 0 29 -7 66
-15 81 -8 16 -106 113 -217 217 -274 254 -397 374 -414 406 -14 27 -20 122 -6
103 11 -16 63 -47 68 -42 7 7 -53 73 -89 99 l-30 22 5 -81 c3 -44 13 -93 21
-109 17 -32 119 -132 425 -418 112 -104 208 -200 215 -215 7 -14 12 -48 11
-76 -5 -88 6 -106 126 -222 61 -59 115 -109 118 -111 4 -1 18 22 31 50 13 29
42 91 65 137 l40 83 -50 45 c-27 24 -109 99 -183 166 -74 67 -146 133 -161
147 -16 14 -73 66 -129 115 -56 50 -104 101 -108 115 -4 16 1 38 16 64 l22 40
-79 76 c-88 84 -92 93 -92 221 0 67 -4 83 -25 115 -33 49 -54 122 -62 214 -3
41 -9 77 -13 80 -7 5 -84 74 -260 235 -36 33 -108 98 -160 145 -52 47 -115
104 -141 128 -49 44 -59 50 -59 30z"/>
<path d="M2940 2578 c-84 -78 -156 -143 -295 -268 -76 -69 -167 -152 -202
-185 l-62 -60 -11 -85 c-14 -102 -39 -176 -75 -224 -24 -31 -26 -42 -24 -108
4 -112 -3 -127 -90 -210 l-78 -74 23 -28 c14 -16 24 -40 24 -58 0 -34 -7 -42
-170 -187 -52 -47 -97 -87 -100 -91 -3 -3 -77 -71 -165 -150 -88 -79 -168
-152 -177 -160 -17 -15 -14 -24 45 -153 34 -75 65 -136 69 -134 3 1 57 51 118
110 120 116 129 132 128 222 0 28 2 60 6 72 4 12 78 88 164 169 373 349 464
438 478 467 9 16 19 67 22 111 6 91 9 90 -66 22 -43 -40 -60 -68 -35 -59 10 3
26 13 36 21 29 26 39 3 22 -54 -16 -53 -72 -112 -354 -374 -237 -219 -273
-254 -286 -279 -7 -15 -16 -62 -20 -106 -4 -44 -10 -85 -13 -92 -12 -20 -180
-173 -190 -173 -10 0 -81 139 -96 188 -6 17 24 48 171 184 98 89 231 210 295
267 64 57 124 119 134 137 18 33 18 37 2 82 l-17 47 63 65 c35 36 67 74 71 85
5 11 11 63 14 115 5 78 10 101 28 123 26 33 59 132 68 202 3 28 8 62 11 76 3
18 77 92 242 241 318 290 315 288 328 288 7 0 14 10 18 23 13 50 5 49 -54 -5z"/>
<path d="M2982 2490 c-4 -46 -37 -128 -63 -157 -14 -15 -87 -86 -161 -156
-123 -116 -179 -187 -147 -187 6 0 13 8 16 18 3 9 38 46 77 81 39 35 117 108
173 162 110 106 118 120 110 214 -2 28 -4 39 -5 25z"/>
<path d="M11 2448 c-1 -31 3 -68 9 -82 9 -25 124 -139 277 -277 39 -35 71 -69
72 -76 1 -14 20 -27 27 -20 12 11 -28 65 -88 121 -181 170 -258 250 -264 274
-3 15 -11 47 -19 72 l-14 45 0 -57z"/>
<path d="M230 2011 c0 -49 3 -104 7 -122 7 -36 65 -97 237 -249 46 -41 85 -83
85 -92 1 -26 21 -22 21 4 0 14 -27 48 -77 96 -43 41 -112 108 -154 148 -79 76
-89 96 -89 181 0 41 16 50 43 25 12 -11 33 -23 47 -27 19 -6 11 7 -40 59 -35
36 -68 66 -72 66 -4 0 -8 -40 -8 -89z"/>
<path d="M2690 2035 c-40 -41 -58 -65 -48 -65 9 0 30 12 47 26 37 31 51 25 51
-24 0 -77 -17 -107 -108 -194 -196 -188 -212 -205 -212 -226 0 -26 20 -30 21
-4 0 9 39 51 85 92 172 151 231 213 237 249 10 47 9 211 -1 211 -4 0 -37 -29
-72 -65z"/>
<path d="M664 2015 c13 -165 35 -205 187 -352 92 -89 121 -124 129 -154 13
-48 -4 -100 -52 -160 -19 -24 -38 -52 -41 -62 -8 -22 -27 -3 303 -302 79 -71
178 -162 219 -202 42 -39 77 -70 79 -68 3 3 -6 55 -23 135 -22 108 -28 141
-45 230 -8 41 -19 63 -47 92 -34 35 -41 38 -93 38 -55 0 -57 1 -100 51 -24 28
-45 58 -46 67 -3 21 11 48 54 100 27 35 35 53 36 89 l1 46 -140 131 c-167 155
-243 227 -349 327 l-78 74 6 -80z m187 -143 c75 -70 182 -169 237 -221 93 -86
102 -97 102 -130 0 -25 -11 -51 -35 -85 -36 -51 -51 -101 -41 -134 4 -11 29
-43 56 -71 46 -48 52 -51 98 -51 45 0 53 -4 85 -39 26 -29 37 -52 42 -88 4
-26 13 -71 20 -100 21 -81 28 -143 18 -143 -6 0 -45 33 -89 73 -43 41 -97 89
-119 108 -22 19 -69 61 -105 95 -36 34 -90 83 -120 109 -30 26 -61 58 -69 70
-13 21 -12 26 17 63 37 46 71 118 72 148 0 44 -43 104 -154 211 -78 76 -122
127 -136 159 -23 49 -39 154 -24 154 5 0 70 -58 145 -128z"/>
<path d="M2265 2022 c-90 -86 -176 -166 -350 -329 l-141 -131 2 -45 c1 -36 9
-55 37 -89 42 -52 56 -79 53 -100 -1 -9 -22 -39 -46 -67 -43 -50 -45 -51 -100
-51 -52 0 -59 -3 -93 -38 -28 -29 -39 -51 -47 -92 -17 -90 -20 -108 -45 -230
-3 -14 -10 -47 -15 -73 -5 -27 -13 -53 -16 -59 -4 -6 -2 -9 3 -7 9 4 53 43
278 249 71 65 213 193 293 264 23 21 42 44 42 51 0 7 -20 39 -44 72 -48 65
-60 93 -59 140 2 44 25 74 147 187 78 72 112 111 130 150 27 58 49 172 44 230
l-3 35 -70 -67z m30 -104 c-23 -91 -51 -132 -168 -241 -58 -54 -113 -114 -122
-134 -27 -57 -16 -121 34 -192 22 -33 41 -66 41 -74 0 -9 -12 -25 -27 -37 -15
-12 -75 -65 -132 -118 -246 -227 -342 -312 -352 -312 -14 0 -12 14 32 230 20
101 59 140 139 140 35 0 46 7 94 55 29 30 56 63 58 73 8 28 -16 89 -51 132
-23 29 -31 49 -31 78 0 35 6 45 57 91 31 29 118 109 192 180 212 199 245 227
249 208 2 -9 -4 -44 -13 -79z"/>
<path d="M1433 1588 c-7 -91 -7 -154 -2 -156 5 -2 9 -16 9 -31 0 -19 9 -34 30
-49 l30 -23 30 23 c21 15 30 30 30 49 0 15 4 29 9 31 10 3 -9 308 -20 308 -9
0 -19 -82 -19 -165 0 -80 -16 -109 -45 -85 -11 9 -15 33 -15 85 0 83 -10 165
-19 165 -4 0 -12 -69 -18 -152z m102 -158 c-4 -19 -13 -42 -21 -50 -12 -12
-16 -12 -28 0 -8 8 -17 31 -21 50 l-6 35 41 0 41 0 -6 -35z"/>
<path d="M757 1633 c1 -38 2 -75 2 -83 1 -8 35 -47 78 -88 87 -83 101 -83 111
3 l5 47 -94 94 c-51 52 -96 94 -99 94 -3 0 -5 -30 -3 -67z m144 -108 c19 -21
25 -70 10 -79 -5 -3 -34 18 -65 47 -51 49 -56 57 -56 97 l0 44 47 -44 c26 -25
55 -54 64 -65z"/>
<path d="M2143 1607 c-101 -103 -110 -125 -77 -189 l16 -31 74 74 c80 79 87
97 82 187 l-3 54 -92 -95z m63 -29 c-8 -44 -103 -139 -117 -117 -16 26 -9 42
44 96 63 62 82 68 73 21z"/>
<path d="M1372 1344 c-32 -22 -27 -34 13 -27 28 4 35 2 35 -10 0 -21 -7 -25
-55 -28 -36 -2 -75 -22 -75 -38 0 -3 27 -4 60 -3 57 4 63 2 105 -33 l45 -36
45 36 c42 35 48 37 105 33 33 -1 60 0 60 3 0 16 -39 36 -75 38 -48 3 -55 7
-55 28 0 12 7 14 35 10 41 -7 45 4 10 27 -35 23 -44 21 -87 -26 l-38 -41 -38
41 c-42 46 -56 50 -90 26z m155 -69 c18 12 28 14 36 6 8 -8 2 -19 -23 -41 -19
-16 -37 -29 -40 -29 -3 0 -20 12 -39 28 -42 35 -35 59 10 35 28 -14 33 -14 56
1z"/>
<path d="M132 1198 c-21 -21 -13 -31 70 -95 l81 -63 219 0 218 0 0 45 c0 39
-5 49 -42 84 l-43 40 -245 1 c-178 0 -249 -3 -258 -12z m513 -49 c19 -17 35
-40 35 -50 0 -18 -10 -19 -193 -19 -207 0 -206 0 -270 58 -20 19 -24 28 -15
34 7 4 102 8 210 8 l197 0 36 -31z"/>
<path d="M2323 1169 c-38 -35 -43 -45 -43 -84 l0 -45 228 0 229 0 81 63 c134
103 127 107 -197 107 l-256 -1 -42 -40z m502 1 c3 -5 -17 -27 -46 -50 l-51
-40 -198 0 c-123 0 -201 4 -205 10 -11 18 4 44 37 68 31 21 41 22 245 22 123
0 214 -4 218 -10z"/>
<path d="M1444 1118 c12 -42 46 -219 46 -239 0 -10 5 -19 10 -19 6 0 10 9 10
19 0 20 34 197 46 239 6 21 4 22 -56 22 -60 0 -62 -1 -56 -22z m68 -48 c-5
-38 -18 -39 -25 -3 -6 33 -1 44 17 37 8 -3 11 -16 8 -34z"/>
<path d="M750 1050 c0 -67 21 -109 78 -161 26 -23 90 -84 143 -136 53 -51 98
-93 100 -93 9 0 -3 135 -13 148 -6 6 -77 76 -159 153 l-149 141 0 -52z m202
-180 c81 -79 107 -120 76 -120 -7 0 -64 49 -125 108 -94 89 -113 112 -113 137
l0 29 37 -35 c21 -18 77 -72 125 -119z"/>
<path d="M2088 947 l-157 -152 -3 -67 c-2 -38 -2 -68 0 -68 2 0 47 42 100 93
53 52 118 113 144 136 59 54 80 97 76 160 l-3 49 -157 -151z m122 41 c0 -16
-35 -57 -117 -135 -65 -61 -121 -109 -125 -107 -20 13 -4 46 45 92 120 115
182 171 190 172 4 0 7 -10 7 -22z"/>
<path d="M351 986 c2 -2 59 -47 127 -100 l123 -96 144 -3 c80 -1 145 1 145 6
0 4 -3 7 -7 7 -18 0 -135 123 -149 155 l-14 35 -187 0 c-102 0 -184 -2 -182
-4z m379 -88 c23 -29 46 -55 51 -56 5 -2 7 -8 3 -13 -10 -17 -157 -11 -184 8
-45 30 -120 95 -120 103 0 4 47 8 104 9 l105 2 41 -53z"/>
<path d="M2266 955 c-14 -32 -131 -155 -148 -155 -5 0 -8 -3 -8 -7 0 -5 70 -7
155 -6 l154 3 123 96 c68 53 125 98 127 100 2 2 -84 4 -192 4 l-197 0 -14 -35z
m274 -13 c0 -10 -97 -94 -127 -110 -27 -15 -179 -16 -188 -2 -3 5 15 35 41 65
l48 55 113 0 c62 0 113 -4 113 -8z"/>
<path d="M681 726 c2 -2 82 -65 177 -140 l173 -136 111 0 111 0 -69 62 c-38
34 -105 97 -150 140 l-80 78 -139 0 c-76 0 -136 -2 -134 -4z m312 -83 c130
-120 147 -137 144 -147 -2 -7 -24 -10 -52 -8 -50 3 -75 17 -156 86 -49 42
-110 90 -120 94 -5 2 -9 8 -9 13 0 5 32 9 70 9 71 0 71 0 123 -47z"/>
<path d="M1965 652 c-44 -43 -111 -106 -149 -140 l-69 -62 122 0 122 0 150
120 c83 65 162 128 177 139 l27 20 -150 1 -150 0 -80 -78z m250 28 c-14 -22
-220 -183 -244 -189 -35 -10 -104 -6 -108 6 -2 5 42 51 97 101 l100 92 81 0
c48 0 78 -4 74 -10z"/>
<path d="M1490 619 c0 -11 -18 -53 -86 -197 l-44 -92 33 -30 c17 -16 35 -30
40 -30 4 0 8 16 8 35 1 19 2 38 3 43 1 4 5 30 9 57 7 47 35 115 47 115 10 0
38 -64 44 -100 4 -19 9 -60 13 -90 3 -30 7 -57 9 -59 4 -4 72 51 73 60 1 4
-25 62 -58 130 -32 68 -62 134 -65 147 -7 22 -26 31 -26 11z"/>
<path d="M1486 443 c-2 -10 -8 -43 -12 -73 -4 -30 -8 -57 -9 -60 -1 -3 -5 -27
-10 -55 -5 -27 -10 -52 -10 -55 -21 -96 -13 -142 34 -184 21 -19 21 -19 42 0
35 31 52 74 46 113 -7 41 -25 145 -31 178 -3 11 -7 43 -11 70 -9 64 -15 83
-25 83 -5 0 -11 -8 -14 -17z m37 -239 c17 -103 17 -108 -1 -136 -17 -27 -19
-28 -34 -11 -9 10 -18 32 -19 48 -4 38 21 205 30 205 4 0 15 -48 24 -106z"/>
</g>
</svg>
