<?xml version="1.0" standalone="no"?>
<!DOCTYPE svg PUBLIC "-//W3C//DTD SVG 20010904//EN"
 "http://www.w3.org/TR/2001/REC-SVG-20010904/DTD/svg10.dtd">
<svg version="1.0" xmlns="http://www.w3.org/2000/svg"
 width="300.000000pt" height="271.000000pt" viewBox="0 0 300.000000 271.000000"
 preserveAspectRatio="xMidYMid meet">
<metadata>
Created by potrace 1.10, written by Peter Selinger 2001-2011
</metadata>
<g transform="translate(0.000000,271.000000) scale(0.100000,-0.100000)"
fill="#000000" stroke="none">
<path d="M1490 2675 c-1 -16 -14 -91 -28 -165 l-27 -135 -155 -32 c-85 -17
-159 -32 -165 -33 -5 -1 64 -16 154 -34 l165 -32 32 -165 c17 -90 34 -157 37
-149 2 8 18 82 33 165 l29 150 135 27 c74 14 149 27 165 28 53 1 7 15 -151 45
l-151 28 -28 151 c-29 157 -44 205 -45 151z m15 -214 c-3 -5 -1 -12 5 -16 5
-3 10 -17 10 -30 0 -38 45 -82 90 -90 58 -10 57 -21 -1 -36 -57 -15 -82 -42
-93 -101 -4 -21 -11 -38 -17 -38 -6 0 -8 4 -4 9 3 5 1 12 -5 16 -5 3 -10 17
-10 30 0 28 -61 85 -93 85 -26 0 -53 15 -41 23 5 3 28 10 51 16 48 13 77 47
87 104 4 20 11 37 17 37 6 0 8 -4 4 -9z"/>
<path d="M4 2600 c3 -19 11 -37 17 -39 6 -2 88 -74 183 -159 94 -86 189 -172
210 -192 171 -154 186 -174 186 -244 0 -46 37 -164 63 -201 18 -24 23 -51 28
-140 4 -60 7 -112 8 -114 1 -2 33 -36 73 -77 67 -69 71 -75 60 -99 -16 -35
-15 -70 3 -105 14 -28 70 -80 408 -385 98 -88 180 -169 183 -180 6 -23 -71
-195 -87 -195 -9 0 -38 25 -149 130 -40 37 -50 63 -50 127 -1 80 -25 126 -106
202 -86 81 -321 301 -427 401 -98 92 -137 144 -137 182 0 33 3 34 41 11 36
-22 62 -9 67 32 4 29 12 20 -217 239 -78 74 -90 94 -97 168 -5 56 1 58 57 21
l40 -26 20 20 c35 35 17 63 -144 215 -189 179 -178 166 -203 246 l-22 67 -1
-53 c-1 -29 5 -67 12 -85 8 -19 83 -97 180 -187 127 -118 166 -161 167 -180 0
-22 -4 -21 -52 25 -28 28 -60 59 -70 70 -18 20 -19 18 -15 -90 2 -79 8 -119
20 -142 9 -17 82 -92 162 -165 109 -101 144 -139 145 -158 0 -24 -1 -24 -37
11 -21 19 -51 46 -67 59 l-29 25 6 -77 c3 -42 13 -93 23 -113 11 -24 121 -134
313 -312 163 -151 305 -287 315 -301 15 -19 21 -46 24 -114 l4 -89 120 -114
120 -114 64 136 c51 109 62 140 52 149 -7 6 -139 125 -293 264 -154 139 -290
263 -303 277 -27 30 -28 66 -2 108 l20 32 -66 58 c-96 85 -104 101 -104 218 0
88 -2 102 -24 130 -39 52 -65 154 -76 293 0 1 -118 108 -262 240 -145 131
-285 259 -312 284 l-49 45 7 -35z"/>
<path d="M2705 2363 c-159 -145 -298 -272 -308 -281 -12 -12 -20 -44 -26 -98
-11 -94 -34 -167 -67 -211 -22 -28 -24 -42 -24 -130 0 -117 -8 -133 -104 -218
l-66 -58 20 -32 c25 -40 25 -76 3 -103 -13 -14 -435 -399 -606 -551 -4 -4 22
-69 57 -144 l64 -136 120 114 120 114 4 89 c3 68 9 95 24 114 10 14 152 150
315 301 192 178 302 288 313 312 10 20 20 71 23 113 l6 77 -29 -25 c-16 -13
-46 -40 -66 -59 -37 -35 -38 -35 -38 -11 1 19 36 57 145 158 80 73 153 148
162 165 12 23 18 63 20 142 4 108 3 110 -15 90 -10 -11 -42 -42 -70 -70 -48
-46 -52 -47 -52 -25 1 19 40 62 167 180 97 90 172 168 180 187 7 18 13 56 12
85 l-1 53 -13 -30 c-8 -16 -14 -43 -14 -60 -1 -26 -27 -55 -175 -200 -105
-102 -177 -180 -181 -195 -4 -19 0 -31 14 -44 20 -18 22 -18 61 8 22 14 44 26
50 26 26 0 0 -125 -34 -161 -12 -13 -77 -75 -144 -138 -131 -123 -153 -158
-121 -187 18 -17 21 -17 55 0 20 9 39 15 41 12 3 -3 2 -22 -2 -43 -7 -41 -85
-123 -354 -373 -293 -272 -288 -267 -300 -315 -6 -24 -11 -68 -11 -98 0 -37
-5 -60 -17 -73 -49 -54 -175 -165 -184 -162 -12 4 -89 167 -89 189 0 8 30 42
67 75 37 32 104 93 148 134 45 41 126 115 181 164 179 162 214 201 214 240 0
19 -5 46 -12 60 -10 24 -7 30 49 86 79 79 90 104 96 224 2 54 9 101 14 105 28
19 64 135 78 253 7 51 -24 20 454 458 51 47 102 89 112 94 19 9 34 46 27 64
-1 5 -133 -109 -293 -255z"/>
<path d="M665 2015 c4 -44 16 -109 27 -145 19 -62 27 -72 153 -196 108 -106
135 -138 140 -167 9 -47 -7 -93 -55 -157 -22 -30 -40 -61 -40 -71 0 -10 125
-131 298 -287 163 -149 298 -269 299 -269 0 1 -17 92 -39 201 -38 189 -42 202
-76 243 -35 41 -38 43 -93 43 -57 0 -58 1 -103 52 -25 29 -46 59 -46 66 0 26
28 78 59 106 27 26 31 36 31 81 l0 52 -192 179 c-106 98 -233 217 -282 264
l-88 85 7 -80z m131 -97 c124 -115 232 -216 317 -299 89 -88 94 -105 43 -169
-73 -93 -70 -145 13 -223 40 -38 55 -45 104 -51 83 -11 100 -37 132 -201 14
-70 25 -131 25 -136 0 -17 -17 -9 -53 24 -91 84 -119 108 -212 191 -55 49
-131 120 -170 158 -68 66 -70 68 -55 92 8 13 28 45 43 70 34 54 44 110 28 158
-7 23 -48 71 -112 134 -56 54 -110 108 -121 119 -41 40 -96 205 -70 205 5 0
45 -33 88 -72z"/>
<path d="M2309 2064 c-13 -15 -138 -132 -276 -262 l-253 -235 0 -52 c0 -45 4
-55 31 -81 31 -28 59 -80 59 -106 0 -7 -21 -37 -46 -66 -45 -51 -46 -52 -103
-52 -55 0 -58 -2 -93 -43 -34 -41 -38 -54 -76 -243 -22 -109 -39 -200 -39
-201 1 0 136 120 300 269 172 156 297 277 297 287 0 10 -18 41 -40 71 -48 64
-64 110 -55 157 5 29 32 61 140 167 126 124 134 134 153 196 18 60 40 220 30
220 -3 0 -15 -12 -29 -26z m-15 -112 c-23 -111 -23 -112 -165 -258 -97 -100
-139 -150 -144 -172 -11 -52 4 -108 47 -172 26 -39 37 -66 33 -77 -4 -10 -50
-57 -103 -105 -53 -47 -159 -143 -235 -212 -76 -69 -143 -126 -148 -126 -11 0
-8 26 23 177 25 127 49 159 122 168 64 8 74 14 131 77 44 49 46 55 41 93 -4
22 -19 57 -34 79 -45 64 -53 84 -46 110 8 33 459 460 475 450 5 -3 7 -17 3
-32z"/>
<path d="M1449 1729 c-9 -34 -23 -287 -17 -294 4 -5 8 -19 8 -30 0 -12 14 -34
30 -50 l30 -29 30 29 c17 16 30 38 30 50 0 11 4 25 8 30 9 11 -11 281 -21 292
-4 3 -8 -36 -9 -88 -2 -130 -2 -127 -20 -146 -16 -15 -19 -15 -35 0 -15 13
-19 35 -22 124 -2 90 -7 133 -12 112z m84 -275 c3 -3 -2 -21 -10 -40 -16 -32
-18 -33 -35 -17 -10 9 -18 27 -18 40 0 19 5 23 28 23 16 0 31 -3 35 -6z"/>
<path d="M760 1626 l0 -78 77 -79 77 -80 18 33 c34 65 27 82 -77 187 l-95 96
0 -79z m92 -58 c49 -46 68 -76 61 -95 -8 -22 -23 -14 -74 37 -33 33 -49 58
-49 75 0 34 9 32 62 -17z"/>
<path d="M2142 1606 c-100 -102 -108 -120 -74 -184 l18 -33 77 80 77 79 0 76
c0 42 -1 76 -3 76 -2 0 -45 -42 -95 -94z m64 -28 c-4 -22 -22 -48 -52 -75 -53
-50 -64 -53 -64 -18 0 16 17 41 51 75 59 59 74 63 65 18z"/>
<path d="M1370 1340 l-25 -20 38 0 c31 0 38 -3 35 -17 -2 -13 -17 -20 -52 -25
-27 -4 -56 -14 -65 -22 -14 -15 -9 -16 54 -16 66 0 71 -2 107 -37 l38 -37 38
37 c36 35 41 37 107 37 63 0 68 1 54 16 -9 8 -38 18 -65 22 -35 5 -50 12 -52
25 -3 14 4 17 35 17 l38 0 -25 20 c-14 11 -29 20 -35 20 -5 0 -29 -19 -52 -42
l-43 -42 -43 42 c-23 23 -47 42 -52 42 -6 0 -21 -9 -35 -20z m95 -70 c8 -13
62 -13 70 0 4 6 11 8 16 4 11 -7 -33 -44 -53 -44 -14 1 -58 34 -58 44 0 10 18
7 25 -4z"/>
<path d="M1466 1033 c13 -60 24 -120 24 -135 0 -16 5 -28 10 -28 6 0 10 12 10
28 0 15 11 75 24 135 l22 107 -56 0 -56 0 22 -107z"/>
<path d="M750 1042 c0 -26 8 -61 18 -79 9 -18 80 -91 157 -162 l140 -131 3 37
c7 80 0 92 -157 241 -82 78 -152 142 -155 142 -3 0 -6 -21 -6 -48z m94 -78
c94 -83 186 -178 186 -191 0 -8 -4 -13 -9 -11 -17 6 -198 183 -216 211 -24 37
-10 34 39 -9z"/>
<path d="M2086 945 l-150 -143 -4 -69 -4 -68 38 36 c189 173 251 235 267 262
17 31 24 127 10 126 -5 0 -75 -65 -157 -144z m114 33 c0 -13 -181 -191 -212
-209 -14 -7 -18 -6 -18 4 0 16 204 217 220 217 6 0 10 -6 10 -12z"/>
<path d="M546 699 c-9 -41 -21 -90 -26 -110 l-10 -36 -104 -24 c-58 -13 -103
-25 -102 -27 2 -1 47 -13 101 -26 54 -13 101 -29 104 -35 4 -6 18 -55 31 -108
l23 -98 25 107 25 106 66 17 c36 9 84 21 106 27 l40 11 -105 26 -105 26 -26
110 -26 109 -17 -75z m84 -207 c-14 -5 -60 -54 -60 -65 0 -4 -18 11 -40 34
l-39 42 35 36 36 36 40 -40 c22 -21 35 -41 28 -43z"/>
<path d="M2410 669 c-13 -57 -26 -107 -30 -111 -3 -4 -53 -18 -110 -31 -65
-15 -97 -26 -85 -29 11 -4 54 -14 95 -23 41 -10 82 -21 91 -26 10 -5 24 -46
39 -111 l24 -103 26 107 25 107 90 21 c50 12 99 24 110 27 12 4 -21 15 -84 29
-57 13 -107 26 -110 29 -3 4 -17 54 -31 112 l-26 106 -24 -104z m62 -206 l-37
-38 -43 43 c-25 25 -37 42 -28 42 8 0 27 15 41 34 l26 35 39 -39 39 -39 -37
-38z"/>
<path d="M1429 475 l-67 -143 34 -33 33 -32 5 24 c3 13 10 58 17 99 10 67 34
130 49 130 15 0 39 -61 49 -125 6 -38 14 -83 17 -98 l6 -29 33 32 33 32 -67
143 c-36 79 -68 144 -71 144 -3 0 -35 -65 -71 -144z"/>
<path d="M1490 448 c-1 -2 -14 -81 -30 -176 -19 -114 -26 -181 -21 -195 11
-26 48 -67 61 -67 13 0 50 41 60 66 6 14 -2 84 -20 195 -16 96 -29 175 -30
177 0 1 -4 2 -10 2 -5 0 -10 -1 -10 -2z m29 -262 c14 -93 9 -126 -19 -126 -32
0 -38 41 -18 146 6 35 14 64 18 64 4 0 12 -38 19 -84z"/>
</g>
</svg>
