<?xml version="1.0" standalone="no"?>
<!DOCTYPE svg PUBLIC "-//W3C//DTD SVG 20010904//EN"
 "http://www.w3.org/TR/2001/REC-SVG-20010904/DTD/svg10.dtd">
<svg version="1.0" xmlns="http://www.w3.org/2000/svg"
 width="240.000000pt" height="240.000000pt" viewBox="0 0 240.000000 240.000000"
 preserveAspectRatio="xMidYMid meet">
<metadata>
Created by potrace 1.10, written by Peter Selinger 2001-2011
</metadata>
<g transform="translate(0.000000,240.000000) scale(0.100000,-0.100000)"
fill="#000000" stroke="none">
<path d="M1066 2369 c-83 -11 -221 -56 -313 -103 -187 -94 -370 -289 -453
-483 -37 -87 -37 -101 -4 -113 36 -14 42 -13 50 13 14 46 75 170 106 215 66
97 258 276 272 253 3 -5 -11 -21 -32 -37 -71 -54 -165 -149 -213 -218 -27 -38
-49 -74 -49 -79 0 -12 31 -36 47 -37 7 0 28 24 46 53 214 334 658 463 1023
297 216 -98 388 -300 451 -530 25 -91 25 -328 0 -420 -73 -273 -290 -493 -567
-576 -41 -13 -66 -23 -54 -23 11 -1 52 10 90 23 277 94 469 305 551 606 18 68
20 276 2 357 -38 173 -137 336 -283 461 -71 61 -230 145 -310 163 -31 7 -56
16 -56 21 0 5 -5 6 -10 3 -6 -4 -32 -1 -58 5 -94 24 -332 -20 -467 -88 -117
-58 -273 -198 -327 -293 -22 -40 -33 -45 -57 -30 -31 20 141 226 250 298 40
26 45 38 30 62 -7 11 -17 8 -53 -19 -74 -57 -188 -172 -229 -233 -40 -57 -102
-177 -112 -217 -5 -21 -23 -25 -45 -11 -11 7 -7 24 18 85 134 321 463 560 804
583 l89 6 -5 -45 -5 -44 101 -13 c209 -27 386 -111 522 -246 122 -120 197
-251 234 -408 15 -64 20 -114 19 -227 -1 -80 -4 -136 -6 -125 -3 12 -12 -8
-24 -55 -27 -110 -107 -261 -187 -355 -112 -131 -235 -215 -379 -259 -49 -15
-107 -37 -130 -48 -39 -19 -55 -20 -170 -15 -71 3 -138 9 -150 12 -21 7 -22 9
-8 36 8 15 15 35 15 43 0 13 9 14 58 8 31 -4 96 -7 145 -6 92 1 100 -4 77 -47
-7 -13 -7 -19 0 -19 5 0 10 5 10 10 0 6 7 10 16 10 13 0 14 3 4 15 -10 12 -10
16 1 19 8 2 48 14 89 26 141 41 251 110 356 223 80 86 126 159 161 255 163
442 -73 907 -532 1048 -47 15 -92 18 -215 18 -147 0 -159 -1 -242 -30 -313
-111 -515 -374 -543 -706 -6 -77 -10 -88 -26 -88 -25 0 -32 -20 -19 -54 7 -20
15 -26 29 -21 16 5 21 -5 36 -67 20 -84 69 -196 115 -263 32 -46 34 -69 5 -45
-12 10 -20 9 -40 -4 -14 -9 -25 -21 -25 -27 0 -14 108 -137 132 -150 15 -8 23
-5 38 13 11 13 19 29 20 36 0 14 27 17 32 3 6 -17 130 -90 199 -118 75 -30 71
-23 53 -97 -5 -22 -1 -25 48 -37 33 -9 107 -14 198 -14 120 1 159 5 225 23
199 57 366 171 484 332 49 66 103 159 113 195 4 11 16 52 28 90 26 87 40 265
28 365 -48 391 -378 715 -778 762 l-96 12 0 45 1 46 -40 1 c-22 1 -71 -2 -109
-7z m339 -224 c33 -9 103 -37 155 -62 81 -40 109 -61 190 -142 158 -158 220
-305 222 -527 1 -131 -18 -223 -72 -339 -76 -168 -269 -344 -443 -405 -144
-51 -397 -50 -512 0 -23 10 -59 23 -81 29 -22 6 -73 33 -112 61 l-72 50 -20
-40 c-11 -22 -24 -40 -29 -40 -4 0 -36 31 -69 69 -59 66 -61 69 -43 85 23 20
40 4 21 -19 -19 -23 2 -18 34 8 l29 23 -35 50 c-44 61 -69 112 -96 189 -32 96
-45 153 -38 170 5 14 4 15 -16 0 -31 -21 -40 -19 -36 8 2 14 11 23 25 25 22 3
23 8 23 84 0 44 5 99 11 122 6 22 15 59 21 81 6 22 32 81 57 130 37 73 62 107
136 180 124 124 231 184 390 219 87 19 273 15 360 -9z m526 -1244 c-13 -24
-105 -125 -150 -166 -77 -69 -198 -142 -261 -159 -14 -4 3 7 36 23 124 58 248
157 334 265 47 59 57 68 41 37z m-911 -263 c-1 -18 -28 -89 -33 -89 -9 1 -9 4
-1 39 10 45 13 52 24 52 5 0 10 -1 10 -2z"/>
<path d="M1030 2115 c-138 -40 -246 -103 -343 -199 -77 -75 -168 -219 -197
-312 -26 -83 -32 -285 -10 -374 53 -219 200 -403 400 -502 118 -58 185 -73
335 -72 113 0 140 4 210 27 246 82 441 293 502 545 22 90 22 257 0 342 -24 93
-87 214 -151 292 -51 62 -177 168 -198 168 -5 0 -6 5 -2 12 4 6 3 8 -4 4 -6
-3 -28 2 -49 13 -118 59 -138 63 -308 67 -95 2 -155 -2 -185 -11z m402 -38
c305 -105 498 -373 498 -692 0 -324 -217 -607 -532 -695 -85 -24 -259 -28
-348 -9 -141 30 -260 100 -371 217 -133 139 -193 291 -193 492 0 89 6 134 23
197 53 190 200 363 386 455 46 23 73 32 165 58 19 5 94 8 165 6 110 -2 142 -7
207 -29z"/>
<path d="M905 2023 c-16 -8 -31 -17 -33 -18 -2 -1 10 -22 26 -46 46 -69 56
-111 49 -219 -3 -52 -14 -131 -23 -175 -10 -44 -18 -120 -18 -170 0 -79 4 -97
29 -149 16 -32 46 -73 66 -90 l37 -31 -26 -18 c-53 -36 -138 -75 -179 -82 -35
-5 -45 -3 -63 15 -19 19 -21 30 -16 66 3 25 13 58 22 75 16 32 14 46 -5 34
-16 -9 -47 -82 -67 -153 -16 -58 -16 -62 3 -94 10 -18 31 -39 47 -46 64 -31
236 44 411 180 16 12 25 16 20 8 -5 -8 10 0 33 18 23 19 40 38 37 42 -3 5 0
12 6 16 8 5 10 3 4 -7 -12 -22 194 182 218 216 15 21 16 26 4 16 -9 -7 -17 -9
-17 -3 0 5 7 15 15 22 8 7 36 44 61 82 149 224 153 373 10 370 -48 -1 -156
-44 -156 -63 0 -7 6 -8 18 -3 9 4 39 9 65 12 65 5 80 -9 75 -68 -4 -41 -13
-63 -63 -158 l-17 -34 -42 41 c-68 67 -123 86 -245 86 -86 -1 -105 -3 -116
-18 -18 -24 -28 -99 -15 -107 6 -4 2 -14 -11 -26 -22 -19 -22 -19 -16 6 52
225 42 352 -38 456 -29 38 -45 41 -90 17z m101 -68 c49 -100 55 -184 24 -335
-12 -57 -26 -110 -32 -117 -6 -8 -9 -16 -6 -18 2 -2 33 25 69 62 35 36 56 63
47 59 -10 -3 -25 -9 -34 -12 -12 -5 -14 -1 -8 22 13 56 20 61 87 68 111 11
211 -20 275 -87 l33 -34 -25 -29 -25 -29 -26 31 c-13 18 -46 41 -71 53 l-47
22 -136 -133 c-75 -73 -137 -133 -139 -134 -1 0 5 -18 14 -40 18 -44 61 -94
81 -94 22 0 13 -24 -19 -50 l-31 -24 -35 39 c-63 72 -77 116 -76 235 0 60 10
160 23 234 16 88 20 145 16 180 -8 55 -36 130 -61 157 -14 16 -13 19 13 33 15
8 33 15 40 16 7 0 29 -34 49 -75z m615 -104 c57 -46 1 -213 -131 -391 -77
-104 -257 -284 -368 -367 -178 -134 -346 -192 -393 -134 -22 27 -24 80 -4 131
l13 35 1 -42 c1 -49 27 -73 78 -73 91 0 293 139 473 326 260 270 356 485 228
511 -28 5 -29 7 -13 14 37 14 92 10 116 -10z m-291 -291 c14 -10 34 -28 44
-39 l20 -22 -139 -139 c-77 -77 -145 -140 -150 -140 -15 0 -80 70 -89 94 -5
16 19 45 121 148 136 136 137 137 193 98z m80 -80 c0 -15 -276 -290 -291 -290
-13 0 268 296 284 299 4 0 7 -3 7 -9z m51 -97 c-5 -10 -51 -58 -102 -108 l-93
-90 100 107 c54 59 100 108 102 108 1 0 -2 -8 -7 -17z"/>
<path d="M930 1991 c0 -11 29 -35 35 -29 10 9 -7 38 -21 38 -8 0 -14 -4 -14
-9z"/>
<path d="M997 1873 c-4 -3 -7 -36 -7 -72 0 -36 -5 -93 -10 -126 -34 -197 -40
-234 -40 -277 0 -65 33 -147 75 -188 19 -19 35 -31 35 -27 0 4 -13 20 -30 35
-16 16 -37 48 -45 72 -21 60 -19 193 5 310 11 55 21 140 23 190 1 49 2 90 1
90 0 0 -4 -3 -7 -7z"/>
<path d="M1108 1654 c-13 -12 -9 -26 4 -18 20 13 179 4 213 -11 16 -8 46 -24
65 -36 l35 -23 -20 23 c-39 46 -93 65 -195 69 -52 2 -98 1 -102 -4z"/>
<path d="M1072 1523 c-54 -55 -59 -64 -17 -37 24 16 80 83 74 88 -2 2 -28 -21
-57 -51z"/>
<path d="M1585 1825 c29 -23 21 -75 -25 -170 -51 -106 -136 -216 -267 -349
-188 -190 -355 -303 -464 -314 -38 -4 -54 -1 -69 13 -25 22 -35 15 -16 -11 11
-15 26 -19 69 -18 236 2 789 559 800 805 2 51 1 54 -23 57 -24 3 -24 2 -5 -13z"/>
<path d="M1170 1425 c-74 -74 -132 -137 -129 -139 3 -3 68 58 144 134 77 77
135 140 130 140 -6 0 -71 -61 -145 -135z"/>
<path d="M1195 1400 c-71 -71 -127 -132 -124 -134 3 -3 65 55 139 129 74 74
130 135 125 135 -6 0 -69 -58 -140 -130z"/>
<path d="M1377 1972 c-22 -25 -21 -45 3 -67 29 -26 70 -7 70 33 0 50 -41 69
-73 34z m57 -15 c15 -24 -17 -56 -41 -41 -24 15 -26 29 -7 48 19 19 33 17 48
-7z"/>
<path d="M1145 1930 c-16 -17 -17 -23 -5 -45 16 -30 36 -38 60 -25 28 15 35
48 14 71 -22 24 -46 24 -69 -1z m59 -12 c16 -26 -16 -57 -38 -38 -17 13 -21
42 -9 54 11 11 35 3 47 -16z"/>
<path d="M738 1764 l-76 -77 -27 22 c-15 11 -31 21 -34 21 -4 0 -17 -20 -29
-45 l-21 -44 32 -25 c80 -59 198 -94 280 -82 43 7 44 8 55 57 7 28 10 54 7 59
-3 4 -33 6 -68 3 l-62 -5 53 54 c28 29 52 58 52 64 0 13 -63 74 -76 74 -5 0
-44 -34 -86 -76z m142 2 c0 -6 -26 -37 -57 -69 l-58 -58 75 2 c60 1 74 -1 71
-12 -2 -8 -7 -27 -10 -44 -6 -29 -9 -30 -65 -33 -71 -4 -155 19 -219 60 -35
23 -46 35 -41 47 3 9 9 24 11 34 7 22 22 22 48 -3 l21 -19 83 80 84 80 28 -27
c16 -15 29 -32 29 -38z"/>
<path d="M742 1720 c-92 -91 -92 -110 1 -22 92 87 97 92 97 97 0 16 -25 -4
-98 -75z"/>
<path d="M600 1666 c0 -8 7 -17 16 -20 30 -11 37 -6 19 14 -21 23 -35 26 -35
6z"/>
<path d="M1702 1558 c-18 -18 -14 -53 9 -74 22 -20 42 -14 66 22 11 18 10 23
-7 42 -23 24 -50 28 -68 10z m59 -19 c9 -17 8 -25 -4 -37 -29 -28 -73 12 -47
43 17 21 37 19 51 -6z"/>
<path d="M1509 1433 c-1 -5 -1 -17 0 -28 1 -14 -42 -64 -139 -159 -77 -76
-139 -140 -137 -143 2 -2 27 17 55 42 27 25 53 45 56 45 4 0 18 12 32 28 18
19 24 22 20 9 -3 -10 -6 -26 -6 -35 0 -14 -2 -15 -9 -3 -10 15 -10 16 -26 -64
-6 -27 -11 -28 -132 -30 -29 -1 -53 -5 -53 -10 1 -13 131 -10 170 4 l31 10 -6
-52 c-11 -88 25 -223 77 -291 14 -18 16 -18 61 -1 26 10 47 20 47 22 0 2 -11
21 -25 41 -42 61 -58 133 -50 226 l7 81 81 3 82 3 -57 -58 c-32 -32 -58 -63
-58 -68 0 -15 59 -75 73 -75 7 0 46 34 87 75 41 41 79 75 84 75 5 0 17 -7 27
-16 17 -15 20 -13 41 31 l23 47 -30 24 c-56 45 -131 67 -233 68 -88 1 -93 2
-87 21 13 46 18 185 6 185 -6 0 -11 -3 -12 -7z m-18 -196 c-46 -224 -43 -333
11 -414 l26 -39 -31 -12 c-39 -15 -47 -8 -83 71 -27 58 -29 70 -28 182 2 159
18 222 74 291 30 36 46 49 48 38 2 -8 -6 -61 -17 -117z m224 -29 c35 -8 125
-53 125 -62 0 -9 -23 -66 -26 -66 -2 0 -13 5 -24 12 -17 11 -28 4 -98 -65 -44
-42 -84 -77 -89 -77 -5 0 -22 13 -38 30 l-29 30 70 70 71 70 -69 0 c-38 0 -78
-5 -88 -10 -20 -11 -41 7 -22 19 5 3 12 17 13 31 3 20 11 26 39 31 40 7 107 1
165 -13z"/>
<path d="M1441 1258 c-32 -100 -49 -282 -31 -338 5 -16 8 12 9 80 1 59 10 145
20 195 19 94 20 119 2 63z"/>
<path d="M1430 854 c16 -40 31 -66 37 -61 5 5 -34 87 -42 87 -2 0 0 -12 5 -26z"/>
<path d="M1530 1185 c0 -17 35 -20 46 -4 10 17 122 1 183 -27 58 -26 78 -26
37 1 -42 28 -115 45 -193 45 -58 0 -73 -3 -73 -15z"/>
<path d="M1632 1077 c-60 -60 -75 -87 -50 -87 19 0 127 134 116 145 -2 2 -32
-24 -66 -58z"/>
<path d="M685 1388 c-61 -35 -60 -104 3 -137 60 -32 131 55 89 110 -13 17 -50
39 -64 39 -4 0 -17 -6 -28 -12z m70 -24 c25 -25 16 -75 -17 -94 -32 -17 -54
-8 -77 32 -13 23 -13 29 2 52 20 30 66 35 92 10z"/>
<path d="M679 1339 c-9 -17 -8 -23 2 -30 10 -6 15 -2 17 12 3 16 9 20 28 16
27 -5 33 7 8 17 -28 11 -43 6 -55 -15z"/>
<path d="M1210 918 c-24 -26 -24 -28 -4 -56 18 -27 45 -28 67 -4 23 25 21 48
-5 66 -29 21 -33 20 -58 -6z m55 -28 c0 -33 -40 -41 -50 -11 -9 28 2 43 28 39
16 -2 22 -10 22 -28z"/>
<path d="M964 892 c-6 -4 -16 -17 -23 -29 -10 -19 -8 -26 9 -43 23 -23 33 -24
61 -10 24 13 25 58 2 76 -20 15 -33 17 -49 6z m44 -58 c-19 -19 -45 -13 -55
12 -4 11 1 22 12 31 17 11 22 11 39 -7 19 -18 19 -21 4 -36z"/>
<path d="M591 864 c-19 -19 -30 -34 -26 -34 12 0 75 44 75 52 0 20 -19 13 -49
-18z"/>
<path d="M1050 2328 c-162 -34 -254 -71 -384 -156 -72 -46 -194 -161 -215
-200 -7 -13 23 14 66 59 87 91 150 137 268 196 101 51 199 81 295 89 87 8 130
24 60 22 -25 0 -65 -5 -90 -10z"/>
<path d="M356 1649 c-2 -8 -9 -29 -15 -47 -6 -19 -14 -63 -17 -99 -7 -70 -1
-83 42 -83 19 0 23 8 29 56 4 31 13 81 21 112 8 30 13 56 11 58 -2 2 -18 7
-35 10 -22 5 -33 2 -36 -7z m50 -11 c4 -6 3 -13 -2 -15 -6 -2 -9 -18 -7 -36 4
-26 2 -29 -7 -17 -9 12 -11 10 -7 -12 2 -15 1 -25 -4 -23 -4 3 -6 -17 -3 -45
4 -48 3 -50 -21 -50 -14 0 -25 4 -25 9 0 18 31 184 36 192 8 13 32 11 40 -3z"/>
<path d="M2125 1408 c-2 -7 -9 -56 -15 -108 -6 -52 -13 -108 -17 -125 -3 -16
-3 -27 1 -24 8 7 34 152 38 209 2 37 7 45 22 45 11 0 21 -6 24 -12 2 -8 -5
-13 -17 -13 -12 0 -21 -4 -21 -10 0 -5 9 -10 20 -10 20 0 21 -4 14 -62 -9 -77
-41 -213 -43 -178 -1 14 3 40 8 58 6 18 12 65 15 105 5 66 5 68 -4 22 -34
-177 -38 -195 -50 -195 -5 0 -10 8 -12 18 -3 16 -4 16 -11 -1 -5 -14 1 -21 29
-33 20 -8 37 -14 39 -12 22 23 62 288 49 323 -7 18 -63 20 -69 3z"/>
<path d="M231 1381 c-11 -7 -13 -26 -8 -88 12 -152 72 -317 164 -456 53 -80
194 -227 216 -227 9 0 25 12 36 26 l21 26 -53 43 c-156 130 -275 354 -299 569
-7 55 -17 104 -22 108 -15 10 -38 10 -55 -1z m54 -73 c16 -151 76 -315 158
-439 20 -30 71 -88 113 -130 69 -69 75 -79 64 -98 -11 -21 -12 -21 -55 17
-180 159 -285 355 -325 612 -14 94 -14 100 14 100 22 0 25 -5 31 -62z"/>
<path d="M478 774 c23 -33 107 -114 119 -114 5 1 -8 15 -28 33 -19 18 -52 50
-73 72 -31 33 -34 34 -18 9z"/>
<path d="M335 1250 c-8 -14 14 -110 25 -110 5 0 21 5 35 10 27 10 28 22 9 93
-6 19 -58 24 -69 7z m58 -37 c7 -40 3 -53 -18 -53 -15 0 -38 67 -29 82 3 4 13
8 23 8 13 0 20 -10 24 -37z"/>
<path d="M1969 893 c-46 -71 -143 -175 -219 -234 l-44 -36 20 -32 21 -32 59
44 c100 75 264 267 264 311 0 8 -13 22 -29 30 l-29 15 -43 -66z m72 37 c18
-10 17 -14 -23 -73 -23 -34 -62 -85 -86 -114 -52 -61 -170 -158 -179 -149 -4
4 4 14 18 23 84 58 281 284 259 298 -5 3 -28 -23 -51 -57 -67 -99 -239 -262
-257 -244 -4 4 7 17 23 28 52 37 189 181 228 241 21 31 40 57 43 57 3 0 14 -5
25 -10z"/>
</g>
</svg>
