<?xml version="1.0" standalone="no"?>
<!DOCTYPE svg PUBLIC "-//W3C//DTD SVG 20010904//EN"
 "http://www.w3.org/TR/2001/REC-SVG-20010904/DTD/svg10.dtd">
<svg version="1.0" xmlns="http://www.w3.org/2000/svg"
 width="300.000000pt" height="263.000000pt" viewBox="0 0 300.000000 263.000000"
 preserveAspectRatio="xMidYMid meet">
<metadata>
Created by potrace 1.10, written by Peter Selinger 2001-2011
</metadata>
<g transform="translate(0.000000,263.000000) scale(0.100000,-0.100000)"
fill="#000000" stroke="none">
<path d="M0 2613 c0 -11 17 -35 38 -52 20 -18 60 -54 87 -79 50 -47 221 -203
305 -277 156 -140 168 -154 175 -208 11 -92 27 -151 60 -222 28 -59 33 -81 33
-145 0 -41 6 -88 12 -105 6 -16 41 -60 77 -97 64 -65 65 -67 54 -99 -21 -61
-14 -86 36 -137 27 -27 164 -153 306 -281 164 -148 257 -239 257 -251 0 -26
-79 -198 -94 -203 -6 -2 -56 37 -110 88 l-99 93 -7 88 c-5 49 -11 96 -15 106
-3 9 -143 143 -311 298 -313 291 -344 327 -344 398 0 38 3 39 42 11 50 -36 44
-11 -10 41 -29 28 -55 50 -57 50 -9 0 -5 -112 6 -155 14 -57 54 -98 374 -390
161 -147 266 -249 277 -270 6 -11 10 -43 9 -72 -4 -93 10 -121 101 -203 45
-41 95 -90 111 -108 17 -17 33 -32 37 -32 3 0 19 28 34 63 16 34 45 95 65 135
l36 74 -62 56 c-34 31 -81 74 -105 96 -24 21 -63 57 -88 80 -25 23 -88 80
-140 126 -52 47 -110 100 -130 118 -19 19 -45 41 -58 49 -52 36 -63 103 -24
146 16 18 12 22 -61 91 -89 83 -97 102 -97 223 0 74 -3 86 -30 126 -16 24 -32
59 -35 77 -3 18 -8 37 -10 41 -6 8 -15 80 -17 126 -1 29 -15 46 -97 121 -52
48 -102 94 -111 102 -31 28 -115 105 -210 190 -106 96 -123 111 -174 159 -32
31 -36 33 -36 14z"/>
<path d="M2934 2572 c-110 -103 -173 -160 -254 -232 -47 -41 -110 -98 -140
-126 -94 -88 -114 -106 -140 -126 -20 -16 -25 -29 -26 -71 -2 -67 -12 -124
-24 -148 -6 -10 -8 -19 -6 -19 9 0 -46 -95 -60 -103 -9 -5 -13 -35 -12 -101 0
-116 -11 -142 -97 -216 -35 -30 -64 -58 -65 -62 0 -4 11 -24 25 -44 14 -20 25
-43 25 -50 0 -16 -55 -73 -163 -168 -48 -42 -97 -87 -110 -99 -12 -12 -65 -60
-117 -107 -52 -47 -119 -108 -149 -136 -31 -29 -66 -60 -79 -71 l-23 -18 20
-40 c18 -36 50 -105 92 -203 8 -17 16 -32 19 -31 3 0 59 52 125 114 l120 115
0 82 c1 92 9 115 63 162 19 17 54 49 77 71 22 22 81 76 129 120 228 206 326
302 374 363 22 29 26 47 30 118 3 46 2 84 -2 84 -10 0 -106 -99 -106 -110 0
-6 15 0 33 14 19 15 37 26 40 26 13 0 7 -72 -9 -105 -12 -27 -142 -156 -254
-255 -9 -8 -80 -74 -156 -146 -76 -73 -154 -144 -173 -160 -49 -41 -71 -95
-71 -179 l0 -70 -97 -92 c-54 -51 -103 -93 -109 -93 -17 0 -26 16 -68 111 -42
95 -41 108 11 148 14 12 54 47 88 79 34 31 77 70 96 86 19 17 111 101 206 188
185 171 195 186 168 251 -8 20 -15 38 -15 41 0 2 29 34 64 69 73 73 86 105 86
212 0 58 4 77 24 106 33 48 64 148 73 233 l8 70 166 150 c92 83 204 185 250
227 46 42 105 94 131 115 26 22 47 47 47 57 1 26 -9 21 -65 -31z"/>
<path d="M2966 2392 c-13 -28 -73 -93 -182 -198 -104 -98 -164 -163 -164 -175
0 -12 4 -17 11 -14 6 4 8 9 6 12 -3 2 13 21 36 41 203 179 307 285 313 318 10
52 0 60 -20 16z"/>
<path d="M14 2407 c-3 -9 -1 -30 5 -45 11 -26 129 -143 296 -292 33 -30 59
-57 58 -60 -1 -3 1 -7 3 -9 2 -2 4 5 4 17 0 14 -53 71 -161 174 -104 98 -168
167 -180 193 -14 31 -19 36 -25 22z"/>
<path d="M1390 2371 c0 -4 55 -11 123 -14 237 -10 456 -105 641 -277 l67 -63
22 22 22 22 -40 34 c-115 100 -282 192 -426 236 -129 38 -409 66 -409 40z"/>
<path d="M230 2004 c0 -77 4 -115 16 -140 15 -31 144 -157 255 -250 26 -22 49
-48 53 -59 3 -10 8 -16 12 -13 17 18 -17 62 -128 163 -164 150 -178 170 -178
257 0 37 3 68 6 68 3 0 21 -12 40 -26 58 -45 50 -19 -15 45 l-61 60 0 -105z"/>
<path d="M2714 2056 c-27 -28 -54 -57 -58 -63 -12 -22 11 -14 43 13 43 36 55
24 47 -48 -8 -79 -22 -102 -108 -182 -40 -38 -97 -92 -126 -119 -71 -67 -87
-91 -73 -114 10 -17 10 -16 11 4 0 14 28 46 83 95 157 140 210 193 223 224 11
27 22 230 13 238 -2 2 -27 -20 -55 -48z"/>
<path d="M664 2015 c12 -165 30 -200 186 -352 172 -168 174 -183 47 -355 l-20
-27 29 -33 c16 -18 51 -53 79 -77 27 -24 75 -67 106 -95 30 -28 90 -82 133
-121 43 -38 90 -81 105 -94 14 -13 56 -52 93 -87 37 -35 73 -64 79 -64 7 0 40
26 73 58 34 31 101 93 150 137 49 44 99 89 110 100 12 11 43 40 71 64 141 124
215 196 215 209 0 8 -20 40 -44 72 -25 32 -50 76 -56 97 -18 60 4 95 133 216
70 66 124 126 141 157 15 28 25 50 21 50 -3 0 -1 8 4 19 6 10 13 45 16 77 3
33 8 74 11 92 6 42 -5 41 -48 -5 -20 -21 -58 -58 -85 -83 -100 -91 -268 -247
-354 -329 -84 -79 -89 -86 -89 -125 0 -34 6 -48 31 -72 36 -34 62 -79 64 -112
0 -16 -16 -40 -49 -73 -46 -46 -52 -49 -100 -49 -47 0 -55 -4 -88 -38 -23 -25
-38 -52 -42 -76 -4 -21 -8 -41 -10 -45 -3 -3 -7 -25 -10 -47 -8 -51 -14 -81
-20 -102 -3 -9 -7 -28 -10 -42 -25 -130 -30 -150 -40 -139 -2 2 -22 96 -45
208 -40 201 -41 205 -78 243 -33 34 -42 38 -88 38 -46 0 -54 4 -98 47 -27 25
-50 55 -52 66 -5 25 15 63 59 113 30 33 35 46 35 84 0 43 -3 48 -77 114 -67
61 -297 274 -357 331 -11 11 -47 45 -79 75 l-58 55 6 -80z m1643 -54 c-5 -64
-41 -153 -75 -186 -11 -11 -64 -64 -119 -118 -117 -113 -134 -148 -113 -222 7
-25 30 -68 51 -94 22 -27 39 -54 39 -59 0 -6 -98 -99 -217 -207 -120 -109
-237 -215 -260 -236 -22 -22 -44 -39 -47 -39 -9 0 -7 46 3 93 6 23 18 82 27
131 15 73 23 94 49 122 28 29 39 34 80 34 45 0 52 3 107 58 75 75 76 115 9
201 -16 20 -32 51 -36 69 -7 32 -3 37 77 115 71 71 178 170 376 353 26 24 49
43 51 44 2 0 1 -27 -2 -59z m-1488 -57 c232 -214 363 -340 372 -355 14 -26 1
-68 -32 -111 -68 -87 -66 -125 11 -200 56 -54 62 -58 108 -58 74 0 99 -32 129
-162 13 -57 26 -130 30 -163 l6 -60 -24 20 c-24 20 -165 147 -334 300 -49 45
-107 97 -127 115 -45 38 -47 54 -12 101 66 88 79 150 45 217 -11 20 -69 83
-129 139 -71 66 -116 117 -129 145 -26 56 -47 144 -39 165 7 18 -1 24 125 -93z"/>
<path d="M1433 1598 c-5 -84 -6 -157 -1 -163 4 -5 8 -20 8 -32 0 -21 43 -72
61 -73 16 -1 59 52 59 73 0 12 4 27 9 32 6 6 5 69 -2 165 -14 179 -30 188 -32
17 -1 -84 -5 -111 -18 -124 -14 -15 -17 -15 -32 0 -12 12 -16 42 -19 127 -6
166 -21 156 -33 -22z m112 -157 c-9 -37 -34 -73 -48 -68 -15 5 -50 76 -44 91
3 7 22 10 52 8 45 -4 46 -5 40 -31z"/>
<path d="M757 1628 c1 -40 2 -77 2 -81 1 -5 35 -43 76 -85 81 -83 91 -84 112
-17 16 54 4 75 -90 167 -51 48 -94 88 -97 88 -3 0 -4 -33 -3 -72z m111 -63
c42 -38 65 -80 57 -105 -9 -30 -21 -25 -80 31 -54 51 -77 101 -60 129 7 12 17
5 83 -55z"/>
<path d="M2141 1603 c-93 -90 -94 -92 -88 -132 2 -22 11 -49 19 -60 14 -19 17
-17 86 52 40 39 75 80 78 92 3 11 4 47 2 80 l-3 60 -94 -92z m69 -20 c0 -32
-7 -44 -52 -85 -55 -51 -71 -55 -76 -20 -2 16 14 40 54 82 31 33 61 60 66 60
4 0 8 -17 8 -37z"/>
<path d="M2571 1420 c-7 -14 -30 -43 -51 -65 -36 -38 -38 -44 -44 -125 -31
-429 -353 -812 -778 -925 -87 -23 -120 -55 -111 -108 7 -43 8 -43 115 -23 461
88 822 471 887 940 12 85 13 204 2 281 -6 49 -7 49 -20 25z m-14 -217 c-11
-227 -78 -408 -219 -595 -149 -198 -415 -360 -650 -397 -101 -16 -63 35 52 69
429 126 727 495 776 959 6 61 18 90 38 91 5 0 6 -54 3 -127z"/>
<path d="M371 1287 c-1 -41 5 -119 13 -176 64 -423 350 -766 752 -900 90 -30
261 -64 268 -52 2 3 6 22 10 42 9 52 -11 64 -134 82 -430 63 -769 374 -870
800 -11 46 -21 125 -22 180 -2 113 -14 130 -17 24z m690 -993 c57 -20 215 -54
254 -54 30 0 55 -15 55 -33 0 -23 -244 36 -299 72 -14 9 -25 14 -26 12 0 -3
-9 0 -20 7 -28 16 -15 15 36 -4z"/>
<path d="M1367 1342 c-25 -28 -21 -34 18 -26 30 5 35 4 35 -13 0 -16 -8 -20
-46 -22 -26 -1 -58 -10 -72 -19 -26 -17 -26 -17 47 -20 69 -3 77 -5 110 -37
19 -19 38 -35 42 -35 3 0 21 16 40 35 33 34 37 35 109 35 l75 0 -25 20 c-14
11 -39 20 -57 20 -42 0 -63 9 -63 27 0 12 8 14 35 10 40 -7 45 5 13 27 -32 23
-39 21 -85 -23 l-41 -39 -38 39 c-42 43 -72 49 -97 21z m133 -64 c14 0 34 1
45 3 34 7 27 -25 -11 -49 l-36 -23 -34 26 c-40 30 -47 62 -11 50 12 -4 33 -7
47 -7z"/>
<path d="M1444 1123 c2 -10 7 -28 11 -41 4 -12 9 -37 12 -55 2 -18 6 -39 7
-47 2 -8 6 -37 11 -65 12 -77 18 -76 31 5 14 89 21 124 28 148 3 9 7 29 10 45
5 27 5 27 -55 27 -53 0 -60 -2 -55 -17z m71 -24 c10 -14 -4 -81 -15 -74 -12 7
-23 62 -15 75 8 13 22 13 30 -1z"/>
<path d="M751 1035 l2 -70 81 -80 c120 -119 237 -228 240 -224 2 2 1 36 -3 76
l-7 71 -74 69 c-41 37 -84 77 -95 88 -11 11 -48 47 -83 80 l-63 59 2 -69z
m130 -92 c137 -125 159 -149 159 -177 0 -14 -3 -26 -7 -26 -5 0 -61 51 -125
113 -76 72 -120 122 -124 140 -3 15 -2 27 4 27 5 0 47 -34 93 -77z"/>
<path d="M2154 1012 c-49 -48 -116 -111 -147 -140 -72 -67 -77 -77 -77 -152
l0 -62 138 129 c177 164 184 174 180 251 l-3 61 -91 -87z m66 -12 c0 -25 -45
-75 -162 -181 -64 -59 -92 -79 -100 -71 -8 8 -5 19 8 39 22 33 232 233 245
233 5 0 9 -9 9 -20z"/>
<path d="M1490 618 c0 -7 -30 -73 -66 -147 l-65 -135 35 -35 c19 -19 37 -33
39 -30 3 2 7 31 11 64 3 33 10 75 15 93 5 17 7 32 5 32 -3 0 3 14 13 30 9 17
20 30 24 30 21 0 56 -133 62 -232 2 -25 9 -23 46 16 l33 34 -40 83 c-21 46
-52 112 -67 147 -27 58 -45 78 -45 50z"/>
<path d="M1486 438 c-3 -13 -8 -45 -12 -73 -4 -27 -9 -57 -11 -65 -1 -8 -7
-44 -13 -80 -6 -36 -13 -79 -16 -97 -6 -35 12 -77 45 -107 21 -19 21 -19 42 0
38 34 52 73 44 123 -4 25 -8 56 -10 68 -2 12 -6 36 -11 55 -4 18 -8 42 -10 53
-1 11 -5 40 -8 65 -8 58 -15 80 -26 80 -6 0 -12 -10 -14 -22z m39 -204 c19
-116 19 -144 -5 -174 -18 -24 -20 -24 -37 -7 -14 13 -18 32 -17 80 1 86 24
211 36 199 5 -5 16 -49 23 -98z"/>
</g>
</svg>
