<?xml version="1.0" standalone="no"?>
<!DOCTYPE svg PUBLIC "-//W3C//DTD SVG 20010904//EN"
 "http://www.w3.org/TR/2001/REC-SVG-20010904/DTD/svg10.dtd">
<svg version="1.0" xmlns="http://www.w3.org/2000/svg"
 width="240.000000pt" height="240.000000pt" viewBox="0 0 240.000000 240.000000"
 preserveAspectRatio="xMidYMid meet">
<metadata>
Created by potrace 1.10, written by Peter Selinger 2001-2011
</metadata>
<g transform="translate(0.000000,240.000000) scale(0.100000,-0.100000)"
fill="#000000" stroke="none">
<path d="M1145 2361 c-7 -24 4 -51 22 -51 12 0 12 -3 -1 -22 -11 -15 -16 -46
-16 -93 0 -69 -5 -88 -25 -96 -5 -2 -47 -26 -93 -52 l-82 -49 21 -29 c24 -34
44 -33 127 2 24 11 49 19 55 18 7 0 -1 -5 -17 -11 l-29 -11 6 -184 c5 -159 4
-183 -9 -172 -8 6 -14 17 -14 23 0 6 -27 59 -59 119 -55 100 -58 107 -37 107
32 0 58 22 50 43 -5 14 -19 17 -68 17 -62 0 -63 0 -94 44 -18 24 -32 51 -32
59 0 31 -26 38 -54 16 -27 -21 -27 -21 -8 -43 11 -11 30 -40 41 -64 l22 -43
-30 -55 c-37 -64 -38 -71 -9 -80 16 -5 26 0 41 20 l19 26 39 -61 c22 -34 38
-63 36 -65 -2 -2 -18 3 -36 12 -64 32 -100 29 -169 -11 -34 -21 -62 -41 -62
-45 0 -4 25 -61 56 -126 31 -66 103 -220 161 -344 180 -386 223 -474 235 -481
7 -4 13 -56 16 -133 4 -115 6 -127 28 -147 l24 -22 25 23 c14 13 25 33 25 46
0 12 8 24 18 27 9 3 163 90 342 194 l325 189 3 148 c2 116 0 147 -10 144 -7
-3 -14 -13 -16 -24 -3 -16 -1 -16 7 -4 13 20 3 -90 -15 -148 -11 -37 -10 -43
2 -38 10 4 14 -3 14 -29 0 -38 28 -19 -355 -240 -93 -54 -198 -115 -233 -136
-35 -22 -67 -39 -72 -39 -15 0 -1 172 15 190 7 8 81 159 163 335 83 176 180
382 216 459 36 76 66 144 66 151 0 18 -117 85 -148 85 -15 0 -47 -9 -71 -20
-24 -11 -45 -19 -47 -17 -2 2 7 19 20 38 13 18 31 47 40 62 l17 28 20 -25 c22
-28 39 -32 56 -15 9 9 6 23 -13 58 -14 25 -29 50 -34 54 -8 10 34 99 55 117
22 18 18 36 -9 53 -25 17 -36 12 -48 -23 -3 -8 -20 -34 -37 -57 -30 -41 -32
-42 -93 -45 -52 -2 -63 -6 -66 -22 -5 -22 13 -36 46 -36 23 0 28 -9 13 -26
-15 -16 -111 -201 -106 -205 2 -3 -4 -10 -13 -15 -16 -10 -17 1 -13 171 l3
183 -28 10 c-16 6 -24 11 -18 11 6 1 44 -12 84 -29 l72 -30 19 23 c25 30 24
52 -4 64 -13 6 -56 32 -95 57 l-72 46 0 77 c0 57 -4 81 -17 95 -14 16 -15 18
0 18 22 0 30 16 23 46 -6 21 -12 24 -56 24 -39 0 -50 -4 -55 -19z m95 -15 c0
-22 -4 -25 -40 -24 -35 0 -40 3 -40 24 0 21 5 24 40 24 36 0 40 -3 40 -24z
m-22 -58 c5 -7 13 -51 17 -98 l6 -85 95 -55 c86 -51 110 -70 84 -70 -5 0 -10
-7 -10 -16 0 -11 -5 -14 -17 -9 -10 3 -58 20 -106 37 l-88 30 -99 -34 c-98
-34 -99 -34 -116 -14 -14 17 -15 21 -3 28 8 5 50 30 94 56 l80 47 10 85 c10
83 18 110 34 110 5 0 13 -6 19 -12z m-393 -268 c-21 -23 -35 -26 -35 -6 0 15
14 24 39 25 11 1 10 -4 -4 -19z m783 -3 c3 -16 1 -17 -17 -7 -25 13 -28 33 -4
28 10 -2 19 -11 21 -21z m-736 -62 l27 -45 66 0 c51 0 65 -3 65 -15 0 -10 -10
-15 -28 -15 -54 0 -94 -19 -135 -65 -60 -66 -77 -59 -34 16 l34 62 -24 43
c-22 39 -24 65 -5 64 4 0 19 -21 34 -45z m351 38 c-10 -3 -13 -49 -14 -176 -1
-101 -5 -160 -9 -142 -4 17 -8 94 -9 172 -1 103 -4 143 -13 146 -7 3 3 5 22 5
19 0 29 -2 23 -5z m357 -1 c0 -4 -9 -25 -20 -47 -26 -51 -26 -56 10 -113 34
-56 36 -62 16 -62 -7 0 -26 16 -40 35 -37 48 -66 65 -122 73 -75 11 -68 32 10
32 l65 0 31 45 c28 41 50 57 50 37z m-402 -554 c-3 -299 -2 -493 2 -433 5 61
13 153 19 205 5 52 13 247 17 433 7 337 7 337 28 331 12 -3 23 -9 26 -13 4 -3
3 -112 -1 -241 -14 -433 -18 -603 -25 -943 -6 -271 -10 -342 -21 -353 -19 -18
-27 -18 -46 4 -13 14 -17 79 -26 437 -16 605 -21 771 -26 943 -5 151 -5 153
17 162 13 5 27 9 32 9 6 1 7 -218 4 -541z m-162 312 c29 -52 53 -99 54 -103 1
-26 -49 33 -85 100 -23 43 -48 78 -55 78 -8 0 -15 6 -18 13 -3 10 4 13 23 10
24 -2 36 -18 81 -98z m454 94 c0 -3 -8 -18 -19 -32 -10 -15 -33 -55 -50 -89
-32 -61 -57 -91 -67 -81 -9 10 107 208 122 208 8 0 14 -3 14 -6z m-513 -97
c43 -73 46 -85 19 -70 -16 9 -86 118 -86 134 0 28 30 -1 67 -64z m553 64 c0
-20 -76 -131 -96 -140 -17 -7 -12 6 25 70 40 69 71 99 71 70z m-659 -202 c23
-46 92 -193 154 -325 l113 -241 3 -166 c2 -91 3 -164 1 -162 -2 2 -38 79 -81
172 -92 198 -288 616 -323 690 l-26 52 57 34 c31 20 57 34 59 33 1 -2 21 -41
43 -87z m55 65 c33 -14 74 -26 91 -27 18 -1 28 -4 22 -7 -6 -4 10 -13 35 -20
25 -7 46 -13 46 -14 7 -18 9 -196 3 -195 -4 0 -44 19 -87 42 l-79 42 -48 103
c-26 56 -46 102 -45 102 2 0 30 -12 62 -26z m620 -41 c-19 -38 -41 -85 -49
-105 -14 -32 -28 -44 -98 -78 -45 -22 -84 -40 -86 -40 -2 0 -2 43 -1 96 l3 97
48 15 c26 8 43 18 38 22 -6 3 4 6 22 7 17 1 57 12 87 26 30 14 58 26 62 26 4
1 -8 -29 -26 -66z m150 15 l32 -19 -18 -37 c-10 -20 -31 -66 -48 -102 -16 -36
-84 -180 -150 -320 -144 -307 -195 -417 -210 -450 -8 -19 -11 47 -11 260 0
157 2 312 6 345 l6 60 93 45 c52 25 94 45 94 44 0 -1 -34 -74 -76 -161 -90
-186 -116 -245 -111 -249 4 -4 38 68 186 384 127 273 117 257 148 236 15 -9
41 -25 59 -36z m-556 -258 c5 0 10 -71 12 -170 2 -94 2 -170 0 -170 -1 0 -11
19 -21 43 -10 23 -35 77 -55 120 -20 42 -52 112 -72 155 -20 42 -40 85 -45 94
-6 12 18 3 81 -27 49 -25 94 -45 100 -45z"/>
<path d="M1180 2137 c0 -40 -10 -50 -108 -106 -94 -54 -87 -66 8 -15 97 53
110 66 110 114 0 22 -2 40 -5 40 -3 0 -5 -15 -5 -33z"/>
<path d="M1240 2067 c19 -19 149 -91 155 -85 3 2 -30 24 -72 49 -90 51 -104
57 -83 36z"/>
<path d="M1175 691 c-7 -22 2 -251 10 -259 3 -3 5 58 5 136 0 78 -2 142 -4
142 -3 0 -7 -9 -11 -19z"/>
<path d="M757 1643 c-22 -13 -36 -27 -34 -30 7 -6 86 29 87 39 0 17 -18 14
-53 -9z"/>
<path d="M886 1650 c10 -10 123 -55 169 -67 52 -14 -9 17 -90 46 -49 18 -85
27 -79 21z"/>
<path d="M1420 1623 c-84 -30 -117 -50 -105 -61 2 -2 14 3 27 11 12 8 57 27
98 42 79 29 86 33 79 39 -2 2 -47 -12 -99 -31z"/>
<path d="M1519 1503 c-44 -92 -108 -226 -140 -298 -33 -71 -64 -138 -69 -147
-6 -10 -9 -64 -8 -120 l2 -103 6 100 c5 90 10 109 46 185 104 217 144 302 184
390 23 52 50 103 60 113 16 18 19 18 48 3 62 -32 54 -16 -10 23 l-38 23 -81
-169z"/>
<path d="M725 1871 c-6 -5 -66 -42 -135 -81 -69 -40 -127 -73 -129 -75 -6 -7
-9 -122 -3 -131 14 -19 63 -45 73 -38 6 3 9 30 7 62 l-3 56 115 68 c63 37 119
73 123 80 5 7 4 25 -2 41 -11 27 -29 35 -46 18z m34 -28 c10 -21 4 -26 -114
-94 l-125 -72 0 -58 c0 -62 -4 -67 -32 -45 -14 10 -18 28 -18 74 l0 60 138 80
c75 44 138 79 138 78 1 0 6 -11 13 -23z"/>
<path d="M625 1773 c-60 -35 -117 -68 -125 -73 -8 -5 -13 -11 -10 -13 3 -3 57
26 120 64 63 37 120 70 125 72 6 2 8 7 5 9 -3 3 -54 -23 -115 -59z"/>
<path d="M1632 1855 c-7 -14 -12 -32 -12 -39 0 -7 54 -44 120 -82 l121 -69 -2
-57 c-1 -32 0 -61 4 -64 3 -4 21 2 39 13 32 19 33 21 33 88 l0 68 -135 80
c-74 43 -140 81 -146 83 -6 3 -16 -7 -22 -21z m160 -73 l126 -72 -3 -66 c-2
-61 -12 -83 -37 -84 -4 0 -8 28 -10 61 l-3 61 -117 67 c-65 36 -118 71 -118
77 0 12 22 35 30 32 3 -2 62 -36 132 -76z"/>
<path d="M1660 1830 c0 -10 241 -153 247 -146 5 5 1 8 -144 94 -57 33 -103 56
-103 52z"/>
<path d="M388 1595 c-7 -7 30 -156 43 -171 5 -6 6 -13 4 -16 -9 -8 33 -151 46
-159 7 -4 8 -8 1 -10 -9 -4 14 -97 37 -154 5 -11 14 -49 20 -85 7 -36 18 -73
24 -83 16 -24 561 -338 565 -326 2 5 -17 53 -43 107 -26 53 -46 98 -46 100 1
1 -20 46 -47 100 -27 53 -66 135 -87 182 -20 47 -43 92 -51 101 -8 8 -14 21
-14 29 0 7 -17 50 -39 95 -43 90 -26 77 -241 197 -64 36 -127 72 -141 81 -14
10 -28 15 -31 12z m197 -121 l160 -92 41 -79 c23 -43 41 -79 39 -81 -1 -1 -40
20 -86 47 -46 27 -133 78 -193 112 -102 60 -110 67 -121 106 -25 85 -27 95
-13 87 7 -5 85 -50 173 -100z m75 -191 l185 -108 37 -75 c42 -85 45 -100 21
-78 -10 9 -106 66 -213 127 -107 62 -199 116 -203 120 -4 5 -14 30 -21 57 -8
27 -17 57 -21 68 -7 16 -5 17 11 7 10 -6 102 -59 204 -118z m49 -177 c89 -53
168 -93 175 -89 6 3 8 3 4 -2 -5 -5 5 -16 22 -26 33 -21 126 -189 93 -170 -10
6 -121 70 -248 143 l-230 133 -17 65 c-9 36 -17 66 -18 68 0 5 54 -25 219
-122z m-110 -85 c25 -15 134 -79 242 -141 l196 -112 35 -76 c20 -43 36 -78 35
-79 -1 -1 -121 67 -267 151 -241 139 -266 156 -276 187 -18 53 -26 99 -18 99
4 0 28 -13 53 -29z"/>
<path d="M442 1505 c7 -15 14 -23 16 -17 4 14 58 -9 137 -59 34 -21 67 -39 72
-39 6 0 16 -6 22 -14 6 -8 21 -16 33 -19 34 -9 10 7 -130 88 -167 96 -166 95
-150 60z"/>
<path d="M470 1355 c0 -2 30 -21 68 -41 37 -21 104 -59 148 -85 98 -57 153
-85 139 -71 -11 11 -342 202 -350 202 -3 0 -5 -2 -5 -5z"/>
<path d="M550 1166 c0 -3 44 -31 98 -62 53 -31 132 -77 175 -102 43 -25 80
-49 83 -54 3 -4 10 -8 17 -8 23 0 -21 29 -188 125 -93 54 -173 99 -177 102 -5
2 -8 2 -8 -1z"/>
<path d="M580 983 c0 -12 3 -14 8 -7 5 8 28 -1 72 -28 36 -22 90 -54 120 -70
30 -17 97 -55 148 -86 51 -30 95 -53 98 -50 4 5 -430 258 -442 258 -2 0 -4 -8
-4 -17z"/>
<path d="M1875 1520 c-66 -38 -148 -85 -182 -105 -35 -19 -63 -40 -63 -46 0
-5 12 -1 28 10 41 29 344 202 348 198 9 -9 -27 -34 -176 -119 -156 -90 -166
-98 -188 -143 -31 -64 -22 -67 16 -6 21 35 45 58 79 75 26 14 93 52 148 85 55
32 101 58 102 57 1 -1 -3 -20 -9 -42 -11 -40 -16 -43 -192 -144 -100 -57 -189
-110 -198 -118 -25 -21 -23 -10 13 59 17 34 28 63 26 66 -8 7 -68 -130 -63
-144 3 -7 1 -13 -5 -13 -11 0 -89 -159 -89 -183 0 -8 -6 -20 -13 -26 -8 -6
-31 -50 -52 -98 -21 -49 -58 -129 -82 -178 -41 -86 -50 -115 -38 -115 3 0 42
21 86 46 44 26 82 44 85 41 3 -3 -8 -13 -25 -22 -17 -8 -31 -18 -31 -21 0 -6
106 53 141 79 13 10 2 6 -24 -9 -26 -14 -50 -24 -53 -21 -3 3 36 28 86 57 50
29 94 50 97 47 3 -3 -14 -15 -37 -27 -23 -12 -40 -23 -37 -26 5 -5 127 65 127
73 0 2 -9 -1 -21 -7 -11 -7 -23 -9 -26 -7 -3 3 9 13 26 21 35 19 45 20 35 5
-8 -13 16 -1 99 48 48 29 57 39 56 61 l-2 27 -4 -26 c-2 -15 -16 -32 -33 -42
-42 -25 -48 -21 -13 11 22 19 36 45 48 90 9 35 14 66 12 69 -3 2 -8 -4 -11
-14 -3 -10 -32 -32 -63 -49 -32 -16 -140 -77 -239 -135 -166 -95 -184 -108
-203 -147 -12 -23 -21 -48 -21 -56 0 -7 -11 -23 -25 -36 -14 -13 -25 -21 -25
-18 0 17 72 156 87 170 10 8 41 28 70 44 28 15 49 32 46 38 -3 5 -1 6 5 2 6
-3 60 22 119 57 59 35 131 76 158 92 110 62 124 87 175 310 12 55 26 109 31
120 8 20 39 137 39 149 0 15 -33 0 -145 -64z m85 -120 c0 -16 -20 -29 -205
-135 -157 -90 -183 -108 -203 -144 -13 -23 -22 -47 -19 -54 2 -6 13 6 24 28
28 54 37 61 203 155 80 45 151 87 158 92 20 17 24 3 12 -38 -10 -37 -18 -44
-197 -144 -102 -58 -201 -115 -220 -127 -18 -12 -33 -19 -32 -15 0 4 17 40 37
81 l37 74 182 106 c101 59 188 112 195 119 14 14 28 16 28 2z m-50 -180 c0
-12 -36 -35 -247 -156 -92 -53 -176 -103 -185 -111 -10 -9 -25 -36 -34 -62
-17 -45 -49 -90 -58 -80 -2 2 14 40 37 84 l42 79 125 73 c69 41 134 78 145 83
11 5 52 29 90 54 75 47 85 51 85 36z m-15 -62 c-18 -60 -34 -73 -230 -185
-110 -64 -206 -118 -213 -121 -25 -9 26 76 60 101 18 14 71 46 118 73 47 26
123 71 170 100 47 29 89 53 93 53 5 1 5 -9 2 -21z m-51 -185 c-4 -21 -11 -43
-16 -50 -5 -6 -80 -52 -166 -101 -86 -50 -192 -111 -234 -136 -43 -25 -78 -42
-78 -37 0 5 15 30 33 57 34 49 57 64 339 225 60 33 110 65 114 70 11 19 15 8
8 -28z"/>
<path d="M457 1014 c1 -86 3 -157 5 -159 2 -1 145 -85 318 -185 173 -100 319
-186 325 -191 5 -5 15 -9 22 -9 17 0 17 74 1 88 -13 10 -82 50 -418 244 -85
49 -160 94 -167 99 -6 6 -13 29 -16 52 -7 72 -52 217 -66 217 -3 0 -5 -70 -4
-156z m43 6 c13 -52 20 -103 16 -120 -7 -36 -24 -23 299 -210 127 -73 245
-141 263 -152 17 -11 32 -16 32 -11 0 5 -133 85 -295 178 -262 149 -317 185
-287 185 8 0 355 -198 517 -295 61 -36 70 -45 73 -74 l3 -32 -27 18 c-15 10
-160 95 -323 188 l-296 170 -3 123 c-1 67 -1 122 2 122 2 0 14 -41 26 -90z"/>
<path d="M1877 894 c-15 -21 -57 -48 -187 -122 -190 -107 -407 -236 -415 -244
-22 -23 37 7 275 144 135 78 264 153 288 166 24 14 48 36 53 50 13 33 8 35
-14 6z"/>
</g>
</svg>
