<?xml version="1.0" standalone="no"?>
<!DOCTYPE svg PUBLIC "-//W3C//DTD SVG 20010904//EN"
 "http://www.w3.org/TR/2001/REC-SVG-20010904/DTD/svg10.dtd">
<svg version="1.0" xmlns="http://www.w3.org/2000/svg"
 width="300.000000pt" height="263.000000pt" viewBox="0 0 300.000000 263.000000"
 preserveAspectRatio="xMidYMid meet">
<metadata>
Created by potrace 1.10, written by Peter Selinger 2001-2011
</metadata>
<g transform="translate(0.000000,263.000000) scale(0.100000,-0.100000)"
fill="#000000" stroke="none">
<path d="M3 2560 c0 -41 2 -58 4 -37 2 20 2 54 0 75 -2 20 -4 3 -4 -38z"/>
<path d="M2867 2514 c-32 -31 -56 -58 -54 -60 2 -2 30 23 62 56 75 76 69 78
-8 4z"/>
<path d="M136 2512 c10 -10 39 -35 64 -57 41 -35 40 -34 -10 18 -30 31 -59 57
-64 57 -5 0 -1 -8 10 -18z"/>
<path d="M275 2391 c34 -38 165 -155 165 -149 0 3 -44 45 -97 93 -54 49 -84
74 -68 56z"/>
<path d="M2980 2361 c-6 -16 -43 -60 -81 -97 -38 -36 -68 -68 -66 -70 7 -7
155 152 162 174 9 32 0 27 -15 -7z"/>
<path d="M2660 2323 c-50 -52 -51 -53 -10 -18 73 63 84 75 74 75 -5 0 -34 -26
-64 -57z"/>
<path d="M38 2333 c6 -11 26 -33 43 -47 82 -69 282 -263 289 -281 6 -14 9 -15
9 -5 1 9 -78 92 -176 185 -97 93 -171 160 -165 148z"/>
<path d="M2537 2213 c-31 -30 -57 -58 -57 -61 0 -3 19 12 42 33 22 22 50 48
60 58 11 10 18 20 16 22 -2 2 -29 -21 -61 -52z"/>
<path d="M471 2208 c83 -73 89 -78 44 -30 -27 28 -54 52 -59 52 -5 0 1 -10 15
-22z"/>
<path d="M2721 2099 c-47 -43 -82 -81 -80 -83 2 -3 42 32 87 76 45 45 81 82
80 84 -2 1 -41 -33 -87 -77z"/>
<path d="M580 2116 c0 -4 11 -17 24 -29 13 -13 26 -36 29 -52 l4 -30 2 31 c1
22 -7 38 -29 59 -16 16 -30 25 -30 21z"/>
<path d="M232 2013 l2 -98 3 94 4 95 61 -60 c33 -32 59 -54 57 -48 -4 13 -113
114 -123 114 -3 0 -5 -44 -4 -97z"/>
<path d="M2772 2003 c-1 -61 -5 -120 -8 -130 -5 -17 -5 -17 6 -1 7 11 9 59 7
130 l-3 113 -2 -112z"/>
<path d="M662 2053 l1 -38 4 34 4 33 30 -28 c16 -15 29 -25 29 -21 0 8 -53 57
-62 57 -5 0 -7 -17 -6 -37z"/>
<path d="M2279 2032 l-54 -57 55 50 c30 28 57 51 59 53 2 1 2 4 0 7 -3 2 -30
-21 -60 -53z"/>
<path d="M860 1910 c69 -67 170 -162 225 -212 98 -88 98 -89 19 -12 -44 44
-145 139 -225 213 l-144 133 125 -122z"/>
<path d="M671 1964 c0 -21 4 -48 9 -59 5 -12 6 1 3 35 -7 66 -13 79 -12 24z"/>
<path d="M2130 1893 c-59 -61 -64 -67 -20 -28 79 70 114 105 103 105 -4 0 -42
-35 -83 -77z"/>
<path d="M240 1887 c0 -4 6 -20 14 -35 16 -31 106 -121 106 -107 0 5 -17 26
-39 45 -21 19 -48 51 -60 70 -11 19 -21 31 -21 27z"/>
<path d="M660 1862 c0 -17 47 -109 60 -117 5 -3 11 -25 12 -48 l1 -42 4 38 c3
26 -2 46 -17 66 -11 16 -29 49 -40 73 -11 24 -20 37 -20 30z"/>
<path d="M2670 1767 c-47 -45 -105 -100 -130 -123 -25 -22 -52 -49 -60 -60 -8
-10 44 35 115 101 114 105 174 165 163 165 -2 0 -41 -37 -88 -83z"/>
<path d="M729 1781 c6 -10 62 -66 125 -125 63 -59 118 -117 122 -128 3 -11 8
-17 11 -14 10 9 -24 52 -89 112 -35 32 -89 85 -121 116 -32 32 -53 50 -48 39z"/>
<path d="M1902 1682 l-123 -117 1 -51 c0 -42 4 -54 28 -75 l27 -24 -22 26
c-17 19 -23 38 -23 75 l0 49 122 117 c68 64 121 117 118 117 -3 0 -60 -52
-128 -117z"/>
<path d="M1456 1731 c-3 -4 -8 -35 -10 -67 -4 -48 -4 -51 3 -19 4 22 11 52 16
68 7 26 2 36 -9 18z"/>
<path d="M1546 1719 c-3 -13 -7 -66 -10 -118 -5 -99 -15 -123 -40 -102 -10 9
-16 37 -19 89 l-3 77 -2 -82 c-2 -75 0 -83 19 -94 38 -20 49 6 58 132 7 113 7
144 -3 98z"/>
<path d="M466 1645 c45 -44 84 -89 87 -100 5 -20 5 -20 6 0 1 20 -39 63 -135
145 -22 19 -3 -1 42 -45z"/>
<path d="M760 1629 c0 -46 4 -89 8 -96 4 -6 5 28 4 75 l-4 87 39 -37 c21 -21
42 -38 47 -38 4 0 1 6 -6 13 -8 6 -31 28 -51 46 l-37 35 0 -85z"/>
<path d="M2153 1614 l-88 -86 93 82 c50 46 92 84 92 86 0 11 -17 -3 -97 -82z"/>
<path d="M2125 1632 c-33 -32 -66 -65 -74 -75 -29 -36 -3 -14 69 58 88 88 91
99 5 17z"/>
<path d="M1573 1580 c0 -36 2 -50 4 -32 2 17 2 47 0 65 -2 17 -4 3 -4 -33z"/>
<path d="M2520 1591 c-36 -32 -58 -45 -62 -37 -5 6 -8 1 -8 -12 0 -23 2 -22
48 16 46 39 89 82 81 82 -2 0 -29 -22 -59 -49z"/>
<path d="M422 1525 c-8 -60 -14 -117 -15 -125 -1 -9 -15 3 -32 27 -17 24 -33
43 -37 43 -3 0 -4 -28 -1 -62 4 -52 11 -69 34 -93 26 -28 29 -38 29 -95 l-1
-65 -29 34 c-16 19 -32 33 -34 30 -2 -2 1 -29 6 -59 8 -39 20 -65 43 -90 30
-32 73 -130 57 -130 -4 0 -25 14 -46 30 -22 17 -41 29 -42 27 -2 -1 9 -32 23
-69 23 -57 32 -69 75 -94 44 -26 96 -89 84 -101 -3 -3 -26 2 -52 11 -26 9 -50
14 -52 11 -3 -3 19 -31 49 -62 44 -47 62 -59 98 -66 32 -6 55 -19 83 -46 21
-21 38 -41 38 -43 0 -2 -27 -2 -60 0 -33 2 -60 2 -60 -1 0 -3 29 -26 64 -51
58 -41 70 -46 120 -46 40 0 64 -6 90 -22 41 -27 45 -38 14 -39 -13 0 -45 -6
-73 -13 l-50 -11 70 -33 70 -33 64 16 c59 15 66 15 108 -1 24 -9 40 -20 36
-24 -4 -4 -39 -20 -76 -35 -77 -32 -75 -37 30 -55 l71 -13 57 32 c50 28 61 31
87 22 43 -15 48 -14 48 12 0 20 -9 26 -59 41 -106 32 -277 111 -366 171 -164
109 -295 264 -365 431 -59 141 -81 251 -87 432 -4 94 -2 167 3 170 5 4 7 39 4
77 l-5 70 -13 -110z m48 -614 c20 -39 6 -55 -24 -26 -15 15 -12 45 5 45 4 0
13 -9 19 -19z m114 -216 c19 -28 20 -35 6 -35 -22 0 -59 32 -53 46 8 21 29 17
47 -11z m166 -183 c28 -22 19 -46 -13 -36 -37 11 -49 25 -36 40 15 18 22 18
49 -4z m214 -162 c-15 -13 -58 -20 -73 -11 -11 7 -10 12 5 28 17 18 22 18 48
6 15 -8 24 -18 20 -23z m211 -91 c0 -16 -80 -47 -91 -36 -4 4 5 20 20 36 22
23 33 28 50 22 11 -5 21 -15 21 -22z"/>
<path d="M2236 1546 c-5 -22 -142 -154 -150 -145 -2 2 -8 13 -14 24 -6 11 -12
15 -12 9 0 -5 6 -18 13 -28 11 -15 18 -16 33 -8 31 17 144 139 144 156 0 23
-7 19 -14 -8z"/>
<path d="M2574 1450 c16 -265 -44 -520 -168 -713 -48 -75 -152 -185 -235 -248
-79 -60 -273 -158 -391 -197 -69 -23 -86 -33 -88 -50 -4 -25 9 -27 55 -12 26
10 38 7 88 -21 l58 -32 71 13 c39 7 77 15 83 19 8 4 -15 19 -55 35 -37 16 -71
32 -75 36 -5 4 11 15 35 25 41 15 49 15 105 1 61 -16 62 -16 125 11 35 14 67
30 71 34 5 4 -23 13 -62 20 -39 6 -71 16 -71 20 0 20 74 49 127 49 50 0 61 4
119 47 35 26 64 49 64 51 0 2 -27 2 -60 0 -33 -2 -60 -2 -60 2 0 3 17 22 38
42 26 26 50 39 82 45 37 7 55 18 99 66 30 31 52 59 50 62 -3 2 -27 -2 -54 -11
-27 -8 -52 -13 -56 -12 -17 7 45 79 88 103 42 23 51 34 75 92 15 37 26 68 24
70 -1 2 -22 -11 -45 -28 -24 -17 -45 -29 -47 -27 -11 11 24 88 55 121 27 28
38 52 48 99 7 34 11 63 9 66 -2 2 -16 -13 -31 -32 -15 -20 -31 -36 -34 -36 -4
0 -5 28 -3 63 3 51 9 67 32 92 23 25 29 41 32 93 2 34 2 62 -1 62 -3 0 -19
-19 -36 -43 l-30 -42 -12 79 c-17 114 -27 107 -19 -14z m-4 -530 c13 -9 11
-14 -14 -36 -34 -30 -39 -28 -24 14 14 35 16 36 38 22z m-103 -216 c7 -18 -3
-29 -34 -39 -28 -8 -31 10 -6 37 20 22 32 23 40 2z m-159 -186 c18 -18 -5 -38
-46 -38 l-35 0 23 25 c26 28 40 31 58 13z m-195 -152 c24 -18 21 -34 -5 -31
-39 4 -43 5 -58 15 -13 9 -13 11 0 20 20 13 42 12 63 -4z m-183 -140 c0 -12
-43 -5 -71 11 -34 20 -33 35 2 43 18 4 29 -1 46 -21 13 -15 23 -30 23 -33z"/>
<path d="M2026 1514 c-8 -21 -7 -66 2 -81 4 -6 7 13 7 43 0 30 -1 54 -1 54 -1
0 -5 -7 -8 -16z"/>
<path d="M750 1503 c0 -8 9 -17 100 -98 43 -38 38 -32 -20 28 -77 79 -80 82
-80 70z"/>
<path d="M850 1447 c35 -37 68 -67 72 -67 4 0 14 14 23 30 9 17 13 30 11 30
-3 0 -12 -12 -19 -27 l-15 -27 -68 64 -69 64 65 -67z"/>
<path d="M2180 1433 l-55 -57 60 54 c33 29 62 55 64 57 2 2 0 3 -5 3 -5 0 -34
-26 -64 -57z"/>
<path d="M1420 1447 c0 -9 5 -17 10 -17 6 0 10 -13 10 -29 0 -16 8 -35 18 -42
14 -11 15 -11 5 1 -7 8 -13 25 -13 40 0 14 -7 34 -15 44 -13 17 -15 18 -15 3z"/>
<path d="M467 1422 c10 -19 72 -83 138 -144 l120 -111 -120 120 c-66 65 -128
130 -138 144 -17 23 -17 23 0 -9z"/>
<path d="M971 1413 c-7 -15 -26 -45 -43 -67 l-30 -41 32 35 c33 37 64 89 57
96 -2 2 -9 -8 -16 -23z"/>
<path d="M2435 1318 c-55 -54 -95 -98 -90 -98 6 0 55 45 110 100 55 55 95 99
90 98 -6 -1 -55 -46 -110 -100z"/>
<path d="M1851 1373 c10 -20 19 -42 19 -49 0 -6 -21 -34 -47 -62 -45 -48 -51
-52 -103 -55 l-55 -3 55 -2 c55 -2 56 -1 110 53 l53 54 -11 39 c-7 22 -18 45
-26 51 -10 8 -8 -1 5 -26z"/>
<path d="M1370 1335 l-23 -25 31 0 c34 0 44 -15 15 -23 -14 -4 -12 -5 5 -6 16
-1 22 5 22 19 0 15 -7 20 -26 20 -22 0 -25 2 -14 15 20 25 52 17 95 -22 l40
-38 -40 43 c-45 48 -71 53 -105 17z"/>
<path d="M1549 1323 l-34 -38 35 33 c39 35 61 40 79 18 10 -12 8 -15 -11 -18
-32 -4 -38 -38 -6 -37 17 1 18 3 6 6 -26 7 -22 23 5 23 33 0 40 10 20 32 -25
28 -56 22 -94 -19z"/>
<path d="M1141 1330 c-1 -19 14 -40 52 -78 49 -49 56 -52 102 -52 43 0 54 -5
90 -37 l40 -38 -40 43 c-36 39 -43 42 -90 42 -47 0 -54 3 -97 48 -26 26 -48
58 -51 72 l-4 25 -2 -25z"/>
<path d="M1665 1273 c11 -3 26 -10 34 -17 11 -9 0 -12 -50 -17 l-64 -6 74 -1
74 -2 -23 25 c-13 14 -33 24 -44 24 -20 -1 -20 -1 -1 -6z"/>
<path d="M890 1262 c0 -10 284 -272 295 -272 5 0 -30 33 -180 169 -38 35 -80
74 -92 88 -13 13 -23 20 -23 15z"/>
<path d="M1302 1258 c-23 -23 -12 -28 54 -28 61 0 69 -3 107 -35 22 -19 43
-35 46 -35 8 1 71 59 71 66 0 3 -16 -8 -37 -25 l-36 -30 -42 35 c-38 31 -48
34 -106 34 -43 0 -59 3 -49 10 8 5 12 11 9 14 -3 3 -11 0 -17 -6z"/>
<path d="M2142 1246 c-6 -14 -25 -35 -41 -47 -17 -13 -31 -27 -31 -33 0 -5 16
6 36 25 37 35 59 67 51 75 -2 2 -9 -7 -15 -20z"/>
<path d="M2011 1160 c-30 -28 -51 -50 -45 -50 5 0 32 23 59 50 63 64 56 64
-14 0z"/>
<path d="M2118 1015 c-114 -108 -210 -206 -213 -218 -3 -12 -4 -54 -2 -92 l3
-70 2 84 2 85 73 71 c39 39 135 130 212 202 77 73 138 132 135 133 -3 0 -98
-88 -212 -195z"/>
<path d="M730 1167 c0 -8 109 -111 122 -116 12 -4 -6 15 -75 78 -26 24 -47 41
-47 38z"/>
<path d="M1965 1074 c-74 -71 -78 -76 -20 -26 39 33 81 72 94 86 48 51 14 24
-74 -60z"/>
<path d="M980 1135 c16 -24 105 -105 99 -90 -2 6 -28 33 -58 60 -30 28 -48 41
-41 30z"/>
<path d="M1451 1108 c2 -31 2 -31 6 -5 4 25 8 27 53 27 29 0 50 -5 53 -12 3
-8 6 -6 6 5 1 14 -8 17 -59 17 l-60 0 1 -32z"/>
<path d="M752 1043 l1 -58 6 54 6 53 20 -22 c11 -12 65 -63 120 -112 95 -86
94 -84 -20 26 -66 64 -123 116 -127 116 -5 0 -7 -26 -6 -57z"/>
<path d="M1885 1044 c-33 -31 -51 -51 -40 -45 19 9 115 101 105 101 -3 -1 -32
-26 -65 -56z"/>
<path d="M1576 1051 c-16 -85 -18 -96 -12 -90 8 7 27 111 22 116 -2 3 -7 -9
-10 -26z"/>
<path d="M2067 927 l-137 -132 0 -73 0 -73 28 20 c15 10 52 45 82 77 54 57 54
56 -20 -10 l-75 -69 -3 58 c-4 71 2 80 120 186 82 74 156 150 146 149 -1 0
-65 -60 -141 -133z"/>
<path d="M1110 1016 c30 -34 160 -150 160 -143 0 3 -42 42 -92 88 -51 46 -82
71 -68 55z"/>
<path d="M930 976 c44 -47 120 -112 120 -103 0 2 -37 37 -82 77 -56 50 -68 58
-38 26z"/>
<path d="M1477 970 c3 -25 10 -54 14 -65 5 -12 6 -2 2 25 -3 25 -10 54 -14 65
-5 12 -6 2 -2 -25z"/>
<path d="M1253 926 c52 -51 67 -62 67 -52 0 1 -28 27 -62 56 l-63 52 58 -56z"/>
<path d="M1797 924 c-32 -30 -54 -54 -50 -54 10 0 116 100 111 105 -1 2 -29
-21 -61 -51z"/>
<path d="M2170 884 c-41 -41 -71 -74 -66 -74 11 0 125 110 137 133 14 25 12
23 -71 -59z"/>
<path d="M781 933 c16 -19 20 -23 110 -108 38 -36 27 -22 -26 33 -84 86 -116
115 -84 75z"/>
<path d="M1690 863 l-55 -57 60 54 c33 29 62 55 64 57 2 2 0 3 -5 3 -5 0 -34
-26 -64 -57z"/>
<path d="M1020 853 c0 -7 6 -16 13 -20 7 -4 21 -19 30 -33 9 -13 17 -19 17
-12 0 16 -59 81 -60 65z"/>
<path d="M1290 855 c0 -10 102 -104 114 -105 5 0 7 1 5 3 -2 2 -30 27 -61 57
-32 29 -58 49 -58 45z"/>
<path d="M1330 857 c0 -2 39 -40 88 -83 48 -43 78 -68 67 -55 -24 28 -155 145
-155 138z"/>
<path d="M1635 774 c-74 -71 -78 -76 -20 -26 39 33 81 72 94 86 48 51 14 24
-74 -60z"/>
<path d="M1581 769 c-24 -21 -42 -41 -39 -44 2 -3 24 16 48 40 54 55 50 58 -9
4z"/>
<path d="M1024 703 c28 -29 52 -50 55 -48 2 3 2 6 0 8 -2 1 -27 22 -54 47
l-50 45 49 -52z"/>
<path d="M1180 556 c60 -63 140 -133 140 -124 0 3 -46 47 -102 98 -86 78 -92
82 -38 26z"/>
<path d="M1737 474 c-43 -42 -77 -78 -75 -80 2 -2 40 32 83 76 44 44 77 80 75
80 -3 0 -40 -35 -83 -76z"/>
<path d="M1636 352 c4 -18 -1 -32 -22 -53 -15 -15 -31 -26 -36 -23 -4 3 -8 0
-8 -5 0 -19 15 -12 50 24 29 30 32 37 22 57 l-12 23 6 -23z"/>
<path d="M1570 108 c-3 -31 -1 -53 3 -49 5 5 7 30 5 57 l-3 49 -5 -57z"/>
</g>
</svg>
